<?xml version="1.0" encoding="UTF-8"?>
<svg viewBox="10 115 480 275" focusable="false" xmlns="http://www.w3.org/2000/svg">
<title>American Express Logo</title><rect x="14" y="115" width="470" height="275" fill="#3359d9" rx="30"></rect><path fill="#fff" d="M103.93 343.61v-74.67H183l8.47 11.06 8.77-11.06h287v69.52s-7.5 5.08-16.18 5.15H312.12l-9.56-11.77v11.77h-31.34v-20.09s-4.28 2.81-13.54 2.81H247v17.28h-47.43l-8.47-11.29-8.6 11.29z"></path><path fill="#fff" d="M11.6 212.66l17.83-41.56h30.84l10.11 23.28V171.1h38.33l6 16.83 5.84-16.83h172.08v8.46a37.1 37.1 0 0123.91-8.46l55.82.19 9.95 23V171.1h32.07l8.83 13.2v-13.2h32.37v74.67h-32.37l-8.46-13.24v13.24h-47.13L362.88 234h-12.66l-4.67 11.77h-32a31.56 31.56 0 01-21-8.29v8.29h-48.11L234.88 234v11.77H55.7L51 234H38.33l-4.7 11.77h-22z"></path><path fill="#3359d9" d="M35.74 180.3l-24 55.92h15.61L31.79 225h25.79L62 236.22h16L54 180.3zm8.9 13l7.86 19.56H36.75z"></path><path fill="#3359d9" d="M79.65 236.21V180.3l22.25.08 12.94 36.05 12.63-36.13h22.07v55.91h-14V195l-14.81 41.2h-12.24L93.63 195v41.2z"></path><path fill="#3359d9" d="M159.1 236.21V180.3h45.62v12.5h-31.49v9.57H204v11.77h-30.77v9.93h31.49v12.14z"></path><path fill="#3359d9" d="M212.81 180.3v55.92h14v-19.87h5.88l16.76 19.87h17.08l-18.39-20.6a17 17 0 0015.33-17.18c0-11.76-9.23-18.14-19.54-18.14zm14 12.51h16c3.84 0 6.63 3 6.63 5.89 0 3.71-3.62 5.88-6.42 5.88h-16.23v-11.77z"></path><path fill="#3359d9" d="M283.43 236.21h-14.27V180.3h14.27z"></path><path fill="#3359d9" d="M317.27 236.21h-3.08c-14.9 0-23.95-11.75-23.95-27.73 0-16.38 8.95-28.18 27.77-28.18h15.45v13.24h-16c-7.64 0-13 6-13 15.08 0 10.83 6.18 15.37 15.08 15.37h3.68z"></path><path fill="#3359d9" d="M347.69 180.3l-24.05 55.92h15.66l4.43-11.2h25.8l4.41 11.2h16l-24-55.92zm8.9 13l7.86 19.56H348.7l7.89-19.56z"></path><path fill="#3359d9" d="M391.58 236.21V180.3h17.77L432 215.42V180.3h14v55.91h-17.18l-23.27-36.05v36.05z"></path><path fill="#3359d9" d="M113.49 334.05v-55.91h45.61v12.51h-31.48v9.56h30.75V312h-30.75v9.93h31.48v12.14z"></path><path fill="#3359d9" d="M337 334.05v-55.91h45.6v12.51h-31.49v9.56h30.61V312h-30.61v9.93h31.49v12.14z"></path><path fill="#3359d9" d="M160.88 334.05l22.2-27.61-22.73-28.3H178l13.54 17.49 13.58-17.49H222l-22.43 27.95 22.25 28h-17.61l-13.15-17.22-12.83 17.22z"></path><path fill="#3359d9" d="M223.48 278.15v55.91h14.34V316.4h14.71c12.45 0 21.89-6.6 21.89-19.45 0-10.64-7.4-18.8-20.07-18.8zm14.34 12.64h15.5c4 0 6.89 2.47 6.89 6.44 0 3.73-2.86 6.44-6.94 6.44h-15.45v-12.88z"></path><path fill="#3359d9" d="M280.49 278.14v55.91h14v-19.86h5.88l16.76 19.86h17.08l-18.39-20.6a17 17 0 0015.34-17.17c0-11.77-9.24-18.14-19.55-18.14zm14 12.51h16c3.83 0 6.62 3 6.62 5.88 0 3.72-3.62 5.89-6.42 5.89h-16.22z"></path><path fill="#3359d9" d="M389.07 334.05v-12.14h28c4.14 0 5.93-2.24 5.93-4.69s-1.79-4.73-5.93-4.73h-12.66c-11 0-17.11-6.69-17.11-16.74 0-9 5.6-17.61 21.93-17.61h27.22l-5.88 12.58H407c-4.5 0-5.88 2.36-5.88 4.62a4.87 4.87 0 005.15 4.87h13.24c12.25 0 17.57 7 17.57 16.05 0 9.78-5.93 17.79-18.24 17.79z"></path><path fill="#3359d9" d="M440.38 334.05v-12.14h28c4.14 0 5.93-2.24 5.93-4.69s-1.79-4.73-5.93-4.73h-12.67c-11 0-17.11-6.69-17.11-16.74 0-9 5.6-17.61 21.93-17.61h27.22l-5.88 12.58h-23.54c-4.5 0-5.89 2.36-5.89 4.62a4.87 4.87 0 005.15 4.87h13.24c12.25 0 17.57 7 17.57 16.05 0 9.78-5.93 17.79-18.23 17.79z"></path></svg>