<?xml version="1.0" encoding="UTF-8"?>
<svg viewBox="4 204 500 92" focusable="false" xmlns="http://www.w3.org/2000/svg">
  <title>Bloomberg Logo</title>
  <path fill="#2f14da" d="M4 205.28h36.12c6.88 0 12 1.72 15.86 4.59 4.21 3.44 6.5 8.4 6.5 14.52 0 7.07-2.87 11.47-8.6 14.14v.38c7.65 2.49 12 9.37 12 17.59 0 7.83-3.06 13.95-8 17.77-4.2 3.06-9.55 4.4-16.81 4.4H4zM36.49 234c3.82 0 6.69-2.11 6.69-6.5 0-4.21-2.87-6.31-6.88-6.31H23.88v12.61h12.61zm1.72 28.47c4.4 0 7.64-2.67 7.64-7.45 0-5.16-3.44-7.46-7.64-7.46H24.07v15.1h14.14zm30.96-57.19h18.92v73.58H69.17zm22.74 47.4c0-16.63 10.71-27.72 27.33-27.72s27.14 11.28 27.14 27.72c0 16.62-10.51 27.71-27.14 27.71s-27.33-11.09-27.33-27.71zm35.55 0c0-9.18-2.87-14.91-8.6-14.91s-8.41 5.73-8.41 14.91 2.68 15.09 8.41 15.09c5.73-.19 8.6-5.92 8.6-15.09zm21.02 0c0-16.63 10.71-27.72 27.33-27.72s26.95 11.09 26.95 27.72-10.51 27.71-27.14 27.71c-16.43 0-27.14-11.09-27.14-27.71zm35.55 0c0-9.18-2.87-14.91-8.6-14.91S167 243.5 167 252.68s2.68 15.09 8.41 15.09c5.75-.19 8.59-5.92 8.59-15.09zm22.55-26.38h17.59v7.84h.38c3.44-6.12 8.22-9.37 15.86-9.37 6.69 0 11.66 3.25 14.14 9h.39c4.2-6.88 9.74-9 16.24-9 12.23 0 17.39 9 17.39 21v32.88h-18.35V249c0-5.35-1.72-8.79-6.3-8.79s-6.88 4.21-6.88 9.94v28.48h-18.35V249c0-5.35-1.72-8.79-6.31-8.79s-6.88 4.21-6.88 9.94v28.48h-18.92zm105.12 45.49h-.19v6.88h-17.59v-73.39h18.35v26.37h.38c3.44-4.58 8.22-7.07 14.91-7.07 13.19 0 20.83 11.85 20.83 27.71 0 17.78-8.22 28.1-22 28.1a16.17 16.17 0 01-14.69-8.6zm17.77-19.69c0-8.41-3.06-13.95-8.6-13.95-5.73 0-9.17 5.54-9.17 13.95s3.63 14 9.17 14 8.6-5.4 8.6-14zm21.02.38c0-16.43 10.9-27.71 26.57-27.71 7.83 0 13.76 2.49 18.35 6.88 6.11 5.93 8.79 15.1 8.6 25.8h-35.17c.76 6.5 3.82 9.94 9.37 9.94a7.17 7.17 0 007.26-5h17.77c-3.06 12-12.42 18-25.61 18-16.24-.19-27.14-11.28-27.14-27.91zm18.35-5.54h16.82c-.38-6.31-3.82-9.55-8.22-9.55-5.16-.2-8.03 3.44-8.6 9.55zm56-11.66h.38c3.82-7.26 8.79-10.13 15.1-10.13a5.73 5.73 0 013.06.58v16.05H443c-10.89-1.91-17.2 3.25-17.2 15.1v22h-18.55V226.3h17.59zm20.45 43.58h17.77c.76 2.29 3.06 4.39 7.45 4.39 5.93 0 8-3.63 8-9.17v-3.82h-.38a15.7 15.7 0 01-12.61 5.92c-11.28 0-21.22-8.41-21.22-24.84 0-15.1 8-26.76 20.26-26.76 7.07 0 11.28 2.87 14.14 7.26h.38v-5.73h17.62v45.49c0 8.4-2.87 14.9-7.27 18.72-4.58 4-11.08 5.74-18.53 5.74-14.15.19-23.9-5.54-25.61-17.2zm34-28.29c0-6.5-3.06-11.85-8.41-11.85-5.16 0-8.41 4.59-8.41 11.85 0 7.07 3.25 12 8.41 12s8.43-5.12 8.43-12z"/>
</svg>
