<?xml version="1.0" encoding="UTF-8"?>
<svg viewBox="30 47 440 355" focusable="false" xmlns="http://www.w3.org/2000/svg">
  <title>CNBC Logo</title>
  <path fill="#fff" d="M250 83.09c-6.85-17.11-23.53-35.58-54.79-33-39.83 4.29-52.21 42.44-46.21 65.2-15.86-10.73-42.82-15.45-66.35 4.7-30.39 30.46-14.14 71.66 2.57 81.54-18.41-1.71-47.51 10.73-53.95 43.28-6.84 40.4 24 63.95 53.95 63.95h332.55c34.68 0 53.92-30 51.77-58.3-3.41-36.92-37.2-51.09-55.63-48.06 15.4-8.59 36-49 4.69-80.68-24.82-23.61-56.47-15-67.6-4.72 6-19.73-3.84-60.51-44.1-66.95a70.54 70.54 0 00-8-.48c-30.74 0-44.56 22.47-48.9 33.52"/>
  <path fill="#ea6f09" d="M88.17 126.42c-17.55 15.9-23.94 51.91 7.71 73L222.15 286l-61.23-140.25c-12.83-33.1-47.92-40.32-72.75-19.33"/>
  <path fill="#c3004b" d="M196.87 58.23c-20.53.41-51.35 24.86-37.63 62.18l63.32 149.34 22.25-157.08c5.15-39-24.38-57-47.94-54.44"/>
  <path fill="#6560ac" d="M254.7 106.68h12s6.39 0 7.26 3c-4.71 3.85-17.53 4.33-15.83 24.88l20.13 135.15L341.12 120C354 86.56 327 58.64 303 57.79c-1.12-.08-2.24-.15-3.4-.15-21.5 0-46.14 15.63-44.93 49"/>
  <path fill="#2e8ad2" d="M338.59 147L279.1 285.61l126.24-87.09c29.1-20.64 24.4-53.64 8.11-70-6.82-7.68-19.36-13.61-32.64-13.61-15.7 0-32.49 8.32-42.22 32.06"/>
  <path fill="#38b145" d="M391.2 218.24L272.65 301h146c29.95 0 49.19-30.88 40.64-59.21C453.53 224 436.58 210 416.9 210c-8.28 0-17.07 2.5-25.7 8.22"/>
  <path fill="#f6b600" d="M84.77 301h143.82L110 218.24c-27.4-17.6-58.2-7.31-69.32 21.9C31.26 273.58 54.8 301 84.77 301"/>
  <path fill="#2d2a2b" d="M30.76 361c0 14.1 11.53 39.77 55.55 39.77 40.59 0 53.41-18.62 53.41-27.16h-31.43s-1.49 11.28-19.21 11.28-22.53-14.8-22.53-23.36S71.34 339 89.08 339s19.21 9.83 19.21 9.83h31.43c0-8.55-9.41-26.91-53.41-26.91S30.76 349.22 30.76 361m329.52 0c0 14.1 11.54 39.77 55.55 39.77 40.58 0 53.41-18.62 53.41-27.16h-31.4s-1.5 11.28-19.23 11.28-22.54-14.8-22.54-23.36 4.8-22.53 22.54-22.53 19.23 9.83 19.23 9.83h31.4c0-8.55-9.4-26.91-53.41-26.91s-55.55 27.3-55.55 39.08m-134.69-37.81v47.74l-36.57-47.74h-41.13v75.62h28.2v-48.29l35.92 48.29h41.78v-75.62h-28.2M316 380.75v.09h-23.54V367H316c5 0 9.08 3.08 9.08 6.88s-4.06 6.86-9.08 6.86m-23.33-42.84h22.64c3.84 0 6.95 2.53 6.95 5.63s-3.11 5.62-6.95 5.62h-22.64zM339 358.61c5.14 0 15.87-6 15.87-17.51 0-16.44-30.61-17.91-35.31-17.91h-56.38v75.62h56.41c27.13 0 38-8.57 38-22.88S339 358.61 339 358.61z"/>
</svg>
