<?xml version="1.0" encoding="UTF-8"?>
<svg viewBox="-50 110 600 260" focusable="false" xmlns="http://www.w3.org/2000/svg"><title>Crunchbase Logo</title><rect x="-95" y="115" width="140%" height="250" fill="#2f89d3"></rect><path fill="#ffffff" d="M493 246c0-14.13-9.64-22.37-22.34-22.37a22.16 22.16 0 00-23 21.35v1.77a22.42 22.42 0 0021.43 23.37h1.51a26.75 26.75 0 0013.4-3.35 18.19 18.19 0 008.57-11.17h-9.33c-2.28 4.1-6.36 6.1-12.13 6.1-7.79 0-13.59-6.1-13.59-11.92h35.38c.1-1.67.1-2.71.1-3.78zm-35.54-4.44a12.35 12.35 0 0112.83-9.67c6.68 0 12.16 4 13 9.67h-25.83zm-416.9 11.05a13.4 13.4 0 11.16-11h10.39a23.38 23.38 0 100 11H40.56zm47.57-27a20.94 20.94 0 00-9.35-2 17.44 17.44 0 00-9.4 2.88v-1.3h-9.56v43.37h9.61V247.8a34.14 34.14 0 01.6-8.44v-.21a7.29 7.29 0 013.58-4.34 9.66 9.66 0 0110.39 0zm36.3-.39V246a35.13 35.13 0 01-.6 8.44v.21a7.28 7.28 0 01-3.53 4.35 9.68 9.68 0 01-10.4 0 7.28 7.28 0 01-3.53-4.31v-.21a35.13 35.13 0 01-.6-8.44v-20.82h-9.58v23.65a28.89 28.89 0 001.63 11.4 14.73 14.73 0 007.8 7.8 20.94 20.94 0 009.35 2 17.44 17.44 0 009.4-2.88v1.43h9.49v-43.4zm30.86 43.37V247.8a34.9 34.9 0 01.65-8.47v-.21a7.34 7.34 0 013.53-4.31 9.66 9.66 0 0110.39 0 7.39 7.39 0 013.54 4.31v.21a34.38 34.38 0 01.54 8.47v20.79h9.54v-23.65a28.89 28.89 0 00-1.56-11.4 14.72 14.72 0 00-7.79-7.8 21 21 0 00-9.36-2 17.47 17.47 0 00-9.4 2.88v-1.3h-9.61v43.24zm72.43-15.98a13.4 13.4 0 11.16-11h10.39a23.38 23.38 0 100 11h-10.55zm28.87 15.98V247.8a34.62 34.62 0 01.59-8.44v-.21a7.31 7.31 0 013.59-4.34 9.66 9.66 0 0110.39 0 7.34 7.34 0 013.53 4.31v.21a34.22 34.22 0 01.6 8.45v20.78h9.53v-23.64a28.94 28.94 0 00-1.63-11.41 14.68 14.68 0 00-7.8-7.79 21 21 0 00-9.35-2 17.37 17.37 0 00-9.4 2.89v-25h-9.59v66.95zm62.61-44.95h-1.72a23 23 0 00-11.43 4v-26h-9.48v66.95h9.53v-2.45a23.38 23.38 0 1013.1-42.5zm13.4 25v.42a15.48 15.48 0 01-.36 1.64 15.08 15.08 0 01-.65 1.69v.2a13.51 13.51 0 01-9.38 7.36l-1.27.2h-.29a11.69 11.69 0 01-1.45 0 12.28 12.28 0 01-1.82-.13H317a13.12 13.12 0 01-3.4-1h-.26a13.28 13.28 0 01-3-2 13.92 13.92 0 01-2.36-2.83 14.62 14.62 0 01-.86-1.67A13.37 13.37 0 01318 233.85h1.38a14 14 0 0113.25 14.83zM440 238.19V238c0-7.07-5.43-14.26-17.53-14.39s-17.36 7.12-17.52 14.08v.52c.26 4.08 2.6 9.27 11.64 11.4l8.06 1.82c2.08.47 5.61 1.64 5.89 4.29 0 3.66-4.7 5.58-8.07 5.58-3.9 0-8.08-2.15-8.08-5.61v-.2H405v.13c0 7.06 5.43 14.26 17.54 14.39S440 262.69 440 255.6v-.13c-.21-4.14-2.44-9.41-11.64-11.54l-8.06-1.82c-1.76-.39-5.89-1.58-5.89-4.21 0-4.1 4.18-5.56 8.08-5.56s8.08 2.16 8.08 5.62v.23H440zm-89.73 8.7a23.38 23.38 0 0036.37 19.23v2.47h9.53v-43.37h-9.48v2.6a23.12 23.12 0 00-11.43-4h-1.71a23.37 23.37 0 00-23.28 23.07zm9.84 0a13.43 13.43 0 0113.41-13.4 10.59 10.59 0 011.38 0 13.37 13.37 0 0110.91 18.65 14.48 14.48 0 01-.86 1.66 13.35 13.35 0 01-2.36 2.83 13.66 13.66 0 01-3 2h-.26a13 13 0 01-3.4 1h-.42a13.77 13.77 0 01-1.81.13 11.85 11.85 0 01-1.46 0H372l-1.27-.21a13.5 13.5 0 01-9.18-7.3v-.21a12.63 12.63 0 01-.64-1.68 13.38 13.38 0 01-.37-1.64v-.42a15 15 0 01-.43-1.41z"></path></svg>
