<?xml version="1.0" encoding="UTF-8"?>
<svg viewBox="0 190 500 100" focusable="false" xmlns="http://www.w3.org/2000/svg">
<title>Deloitte Logo</title><path fill="#86c236" d="M467.11 272.22A12.93 12.93 0 11480 285.15a12.94 12.94 0 01-12.93-12.93"></path><path fill="#000000" d="M54.64 238q0-12.28-4.75-18.22t-14.43-5.98H28.6v50.1h5.25q10.76 0 15.77-6.39t5-19.55m24.49-.85q0 22.39-12 34.5t-33.86 12.11H5v-89.43h30.22q21 0 32.47 11t11.44 31.81"></path><path fill="#000000" d="M157.38 283.72h22.48v-89.8h-22.48z"></path><path fill="#000000" d="M211.44 250.22q0 8.59 2.24 13.1a7.78 7.78 0 007.53 4.5 7.55 7.55 0 007.39-4.5q2.16-4.5 2.15-13.1t-2.18-12.89q-2.19-4.33-7.47-4.33a7.74 7.74 0 00-7.42 4.33q-2.24 4.32-2.24 12.92m42.19 0q0 16.36-8.59 25.52T221 284.9q-14.82 0-23.6-9.36t-8.77-25.32q0-16.31 8.6-25.35t24.12-9a33.69 33.69 0 0117 4.19 28.26 28.26 0 0111.35 12 39.36 39.36 0 014 18.22"></path><path fill="#000000" d="M262.56 283.72h22.49V217h-22.49z"></path><path fill="#000000" d="M262.56 209h22.49v-15h-22.49z"></path><path fill="#000000" d="M330.6 266.71a32.51 32.51 0 0010.86-2.31v16.79a43.2 43.2 0 01-8.65 2.85 47.73 47.73 0 01-9.63.86q-11.32 0-16.33-5.69t-5-17.45v-27.5H294V217h7.87v-17l22.66-4v21h14.34v17.24h-14.36v26q0 6.48 6.09 6.48"></path><path fill="#000000" d="M382.63 266.71a32.56 32.56 0 0010.87-2.31v16.79a43.2 43.2 0 01-8.65 2.85 47.8 47.8 0 01-9.63.86q-11.33 0-16.33-5.69t-5-17.45v-27.5H346V217h7.88v-17.27l22.66-3.73v21h14.35v17.24h-14.35v26q0 6.48 6.09 6.48"></path><path fill="#000000" d="M421.87 242.1c.31-3.66 1.35-6.33 3.13-8a9.23 9.23 0 016.64-2.56 8.69 8.69 0 016.87 2.89 11.56 11.56 0 012.67 7.71zm31.7-18.4q-8-7.86-22.73-7.86-15.46 0-23.81 9t-8.33 25.94q0 16.37 9 25.23t25.3 8.89a73.47 73.47 0 0013.45-1.07 38.74 38.74 0 0010.82-3.83l-3.45-15a44.28 44.28 0 01-18.15 3.52q-6.51 0-10.27-3.18a11.54 11.54 0 01-4-8.77h40.18v-10.23q0-14.79-8-22.64"></path><path fill="#000000" d="M109 242.1c.31-3.66 1.36-6.33 3.14-8a9.2 9.2 0 016.64-2.56 8.72 8.72 0 016.87 2.89 11.61 11.61 0 012.67 7.71zm31.71-18.4q-8-7.86-22.74-7.86-15.47 0-23.8 9t-8.34 25.94q0 16.37 9 25.23t25.26 8.86a73.39 73.39 0 0013.45-1.07 38.8 38.8 0 0010.83-3.8l-3.45-15a44.28 44.28 0 01-18.16 3.52q-6.49 0-10.26-3.18a11.55 11.55 0 01-4-8.77h40.19v-10.23q0-14.79-8-22.64"></path></svg>