<?xml version="1.0" encoding="UTF-8"?>
<svg viewBox="0 190 500 140" focusable="false" xmlns="http://www.w3.org/2000/svg">
<title>Forbes Logo</title><path fill="#3c639c" fill-rule="evenodd" d="M450.64 321.79c-6.29-.67-16.31-2.87-19.64-4.3l-1.63-.7-.22-8.07c-.12-4.44-.26-10.37-.32-13.19l-.09-5.12 1-.47a7.86 7.86 0 012.41-.53l1.43-.07 1.22 3c4.76 11.71 10.34 18 17.63 19.95 2.78.73 8 .74 10.06 0 5.76-2 8.93-6.4 8.95-12.37 0-7.06-3.85-10.46-18.52-16.19-9.09-3.55-12.26-5.38-16-9.24-4.08-4.17-6-8.91-6.4-15.52a26.05 26.05 0 017.6-20.46c5.57-5.77 12.81-8.9 22.66-9.8 8.68-.79 22 1.05 29 4l1.27.54.23 7.2c.12 3.95.25 9.26.29 11.78l.06 4.59-1.72.64c-2.7 1-2.88.88-4.38-3.11-4.22-11.17-9.12-16.46-16.75-18.07-4.65-1-8.54.07-11.36 3.09a11.22 11.22 0 00-3.27 8c-.23 3.81.45 5.87 2.78 8.41 2.86 3.14 7.56 5.85 16.91 9.75 11.46 4.79 16.93 8.86 19.9 14.8 1.93 3.86 2.48 6.94 2.28 12.87-.14 4.45-.29 5.36-1.3 8.35-3.3 9.75-10.75 16.16-22.27 19.17-3.9 1-4.45 1.07-12.21 1.15-4.47 0-8.76 0-9.54-.06zm-152.25-1c10.73-1.61 18.6-5.29 25.27-11.83 9.63-9.45 14.27-22.78 13.65-39.21-.33-8.46-1.71-14-5.22-20.84-4.75-9.29-12.87-15.81-22.1-17.73A38.49 38.49 0 00287.4 234a21.85 21.85 0 01-3.59 1.43c-.45 0-.5-2.61-.39-20.6l.14-20.61-1.42.28c-.78.16-8.73 1.64-17.67 3.3s-16.6 3.09-17 3.19c-.65.15-.76.4-.69 1.5s.18 1.35 1.48 1.63c4.48 1 5.27 1.34 6.94 3.06 2 2.11 3 4.8 3.56 10.41.49 4.48.59 81.57.13 92.95l-.27 6.74 3.64.78c13.78 2.95 27.52 4 36.15 2.68zm97.31 0a42.79 42.79 0 0022-10.74c3.17-3 4.23-4.46 3.79-5.22-1.18-2-1.13-2-4.14-.17-4.79 2.94-7.18 3.75-12.81 4.32a31.81 31.81 0 01-18.23-3.3A28.88 28.88 0 01376 295.41c-3-5.4-4.69-11.69-5.18-19.79-.2-3.4-.16-4.25.24-4.5s12.05-.31 26.37-.32h25.88v-1a84.65 84.65 0 00-1.45-11.85c-2.75-13.16-10-22.55-20.35-26.33a36.26 36.26 0 00-13.15-2.13q-18.26 0-29.8 12c-6.12 6.36-9.76 13.5-12 23.54-.67 3-.78 4.6-.78 10.95s.11 7.93.76 10.85c4.12 18.53 16.31 30.73 33.82 33.86a52.73 52.73 0 0015.36.14zm-250.45-.46a41 41 0 0015.73-7c10.86-8.12 16.81-20.56 17.36-36.3.55-15.52-4.13-28.74-13.18-37.27-7.35-6.93-16.6-10.24-28.57-10.24-12.68 0-22.9 3.93-30.76 11.84C97.42 249.78 93 261.6 93 275.47c0 14.39 4 26 11.83 34.14a34.7 34.7 0 0014.49 9.32c2.12.75 3.68 1.12 9.36 2.17.49.09 3.75.11 7.24 0a44.83 44.83 0 009.37-.83zM77 279.1l-.82-3.36c-1.54-6.3-4.5-10.82-8.16-12.43-1.69-.75-5.87-1.18-14-1.42l-3.79-.12v8c0 8.69.47 20.44 1.09 26.82.85 8.89 3.12 13.81 7.2 15.59a31.25 31.25 0 005.48 1.2 32.46 32.46 0 014.68.93c.87.44.92 5.05.06 5.38-.66.25-63 .24-63.64 0-.3-.12-.44-1-.44-2.63 0-2.93-.19-2.8 5.47-3.85 4.34-.8 5.9-1.63 7.81-4.14 3.72-4.88 4.53-14.26 4.54-52.91 0-36.3-.7-43.93-4.54-49.54-1.71-2.49-4.58-3.84-9.4-4.42l-3.71-.45-.1-2.89-.1-2.9 1.16-.2c.64-.12 23.1-.17 49.9-.11l48.74.1.23 1.41c.13.78.33 8.75.46 17.72l.23 16.3-2.51.76c-3.79 1.15-3.76 1.17-5.46-3.34-4.19-11.06-9-17.43-15.54-20.65-4.52-2.22-6.61-2.49-19.39-2.49H51.33l-.19 1.86c-.36 3.48-.93 25.85-.93 36.39v10.5h3.26c1.8 0 5.35-.15 7.88-.3 3.81-.23 4.94-.43 6.53-1.17 3.92-1.81 6.59-5.8 8.22-12.29l.84-3.36 5.77-.2v42.41zm102.28 40.5c-.32-.2-.43-1-.35-2.73l.1-2.44 1.24-.27 3.25-.64c3.42-.63 5.38-2.49 6.49-6.13.9-3 1.29-12.44 1.32-31.47 0-23.28-.46-28.77-2.82-31.89-1.27-1.69-2.19-2.17-5.29-2.76l-3.57-.7c-.71-.15-.8-.38-.8-2.11s.11-2 .8-2.27c1.06-.44 36.05-7.43 37.17-7.43h.87l-.17 5.21c-.09 2.87-.24 7-.33 9.27l-.16 4.07 1.26-2.29c4.06-7.32 8.61-11.86 14.67-14.64a19.9 19.9 0 019.64-2c4.87 0 9.73 1.58 9.73 3.17 0 1.07-8.57 23.74-9.05 23.92a14.41 14.41 0 01-3.72-1.43 24.72 24.72 0 00-10.79-2.7c-4.29 0-9.09 1.59-11 3.63-.81.87-.81.92-1 13.9s.23 28.53.95 34.84c.62 5.37 2 8 5 9.24a51.78 51.78 0 009.24 1.27 7 7 0 01.17 2.74l-.1 2.74-26.14.08c-14.23.05-26.09-.05-26.6-.21zm-39.71-4.83c2.5-.74 5.59-3.64 7.24-6.79 3.39-6.49 4.91-16.1 5-31.35 0-19.12-3-31.29-9.28-37.66-2.65-2.67-4.54-3.5-7.93-3.49-7.54 0-12.33 7.88-14.22 23.37-.86 7.12-.87 24.09 0 30.32 2.67 19.27 9.59 28.47 19.24 25.6zm153.07-.17a13.2 13.2 0 006.7-3.43c5.36-4.83 9.39-14.79 11-27.12.65-5 .56-16.48-.16-20.67-1.93-11.35-6.1-18.8-12.17-21.81-2.52-1.24-2.91-1.33-5.89-1.33a19.68 19.68 0 00-5.54.69l-2.34.69-.24 12.91c-.23 16.54.31 58 .76 59.14.29.75.61.91 2 1 3.39.33 3.96.33 5.83-.07zm98.49-50.73l6.15-.22-.22-4.36c-.78-15.4-4.55-23.81-10.66-23.81-6.64 0-12 8.55-14.16 22.78a45.11 45.11 0 00-.5 4.61v1.42l6.62-.1c3.64-.06 9.34-.19 12.72-.32z"></path></svg>