<?xml version="1.0" encoding="UTF-8"?>
<svg viewBox="-20 88 540 305" focusable="false" xmlns="http://www.w3.org/2000/svg">
  <title>Inc Logo</title>
  <rect x="-55" y="90" width="120%" height="300" fill="black"></rect>
  <path fill="#ffffff" d="M4.97 196.7H26.4v90.35H4.97v35.79h114.65v-35.79H97.97V196.7h21.65v-38.66H4.97v38.66z"></path>
  <path fill="#ffffff" d="M296.12 287.05v-47.49c0-30.27-22.09-41.31-49.48-41.31-19.44 0-34.24 5.3-47 20.1a24.47 24.47 0 01-3.32 3.54v-25h-70.74v36h16.13v54.12h-16.13v36h89.69v-36h-17V255.9c0-13.25 9.94-23 23.19-23 10.39 0 18.56 5.08 18.56 16.35v37.55h-16.58v36h87.7v-35.31c0-.22-.22-.44-.22-.66h-14.8z"></path>
  <path fill="#ffffff" d="M453.84 276.45h-48.15c0 13.25-9.72 19.44-20.55 19.44-20.76 0-22.53-17.45-22.53-34v-.44c0-16.57 1.55-34 22.53-34 16.35 0 19.22 14.14 19.66 27.61l48.38-5.3c-5.08-49.26-53.68-52.35-65.83-52.35h-2.65c-40 0-79.3 19.66-79.3 64.28a60.16 60.16 0 005.08 25.18h.22v.66c11.93 26.51 42.85 38.44 74 38.44 25.41 0 61-6.18 68.92-45.28z"></path>
  <circle fill="#ffffff" cx="470.41" cy="303.18" r="20.32"></circle>
</svg>
