<?xml version="1.0" encoding="UTF-8"?>
<svg viewBox="70 70 3140 650" focusable="false" xmlns="http://www.w3.org/2000/svg">
<title>Microsoft Logo</title><g data-name="MS-symbol" id="g7" transform="matrix(9.2414893,0,0,9.2414893,-593.35025,-593.35025)"><clipPath id="clipPath1"><path transform="matrix(1,0,0,-1,0,216)" d="M 0,216 H 482 V 0 H 0 Z" id="path1"></path></clipPath><g clip-path="url(#a)" id="g6"><path d="m 394.942,104.59 h -10.858 v 25.003 h -7.38 V 104.59 h -5.182 v -5.965 h 5.182 v -4.308 c 0,-3.254 1.06,-5.92 3.178,-7.998 2.12,-2.079 4.835,-3.118 8.15,-3.118 0.882,0 1.666,0.045 2.35,0.135 a 9.37,9.37 0 0 1 1.806,0.407 v 6.296 c -0.24,-0.14 -0.663,-0.31 -1.265,-0.512 -0.603,-0.2 -1.296,-0.3 -2.078,-0.3 -1.528,0 -2.702,0.476 -3.526,1.43 -0.824,0.954 -1.235,2.365 -1.235,4.232 v 3.736 h 10.858 v -6.959 l 7.321,-2.229 v 9.188 h 7.381 v 5.965 h -7.38 v 14.49 c 0,1.91 0.345,3.254 1.038,4.037 0.693,0.783 1.782,1.175 3.27,1.175 0.42,0 0.927,-0.1 1.52,-0.3 a 7.178,7.178 0 0 0 1.552,-0.724 v 6.025 c -0.463,0.261 -1.23,0.502 -2.305,0.723 a 15.742,15.742 0 0 1 -3.178,0.331 c -3.073,0 -5.378,-0.817 -6.914,-2.455 -1.537,-1.637 -2.305,-4.102 -2.305,-7.396 z m -48.407,9.73 c 0,3.233 0.733,5.703 2.2,7.411 1.465,1.707 3.564,2.56 6.295,2.56 2.652,0 4.67,-0.853 6.055,-2.56 1.386,-1.708 2.08,-4.238 2.08,-7.592 0,-3.334 -0.719,-5.849 -2.155,-7.547 -1.436,-1.697 -3.45,-2.545 -6.04,-2.545 -2.67,0 -4.745,0.888 -6.22,2.666 -1.477,1.777 -2.215,4.313 -2.215,7.607 m -7.592,0.24 c 0,-5.12 1.446,-9.177 4.338,-12.17 2.892,-2.993 6.91,-4.489 12.05,-4.489 4.841,0 8.621,1.441 11.343,4.323 2.721,2.883 4.082,6.774 4.082,11.674 0,5.021 -1.447,9.018 -4.338,11.99 -2.892,2.973 -6.829,4.458 -11.81,4.458 -4.8,0 -8.61,-1.41 -11.432,-4.232 -2.822,-2.82 -4.233,-6.673 -4.233,-11.554 m -16.417,-7.802 c 0,1.045 0.331,1.863 0.994,2.456 0.662,0.592 2.128,1.34 4.398,2.243 2.912,1.166 4.956,2.476 6.131,3.932 1.175,1.456 1.762,3.22 1.762,5.287 0,2.912 -1.12,5.252 -3.359,7.02 -2.24,1.767 -5.267,2.65 -9.083,2.65 -1.285,0 -2.706,-0.155 -4.263,-0.467 -1.556,-0.31 -2.877,-0.707 -3.96,-1.19 v -7.169 a 17.945,17.945 0 0 0 4.277,2.198 c 1.526,0.543 2.911,0.814 4.157,0.814 1.647,0 2.862,-0.23 3.645,-0.693 0.784,-0.46 1.175,-1.235 1.175,-2.319 0,-1.005 -0.406,-1.853 -1.22,-2.546 -0.813,-0.693 -2.355,-1.492 -4.624,-2.395 -2.69,-1.125 -4.599,-2.39 -5.724,-3.796 -1.125,-1.406 -1.687,-3.193 -1.687,-5.362 0,-2.792 1.11,-5.086 3.33,-6.884 2.217,-1.797 5.095,-2.696 8.63,-2.696 1.084,0 2.3,0.12 3.645,0.361 1.346,0.242 2.47,0.553 3.374,0.934 v 6.93 c -0.964,-0.644 -2.089,-1.195 -3.374,-1.658 -1.286,-0.462 -2.56,-0.693 -3.826,-0.693 -1.386,0 -2.465,0.271 -3.238,0.813 -0.774,0.543 -1.16,1.286 -1.16,2.23 m -35.066,7.562 c 0,3.233 0.733,5.703 2.2,7.411 1.465,1.707 3.564,2.56 6.295,2.56 2.652,0 4.67,-0.853 6.055,-2.56 1.386,-1.708 2.08,-4.238 2.08,-7.592 0,-3.334 -0.719,-5.849 -2.155,-7.547 -1.436,-1.697 -3.449,-2.545 -6.039,-2.545 -2.672,0 -4.745,0.888 -6.222,2.666 -1.476,1.777 -2.214,4.313 -2.214,7.607 m -7.592,0.24 c 0,-5.12 1.446,-9.177 4.338,-12.17 2.893,-2.993 6.91,-4.489 12.051,-4.489 4.84,0 8.621,1.441 11.342,4.323 2.721,2.883 4.082,6.774 4.082,11.674 0,5.021 -1.446,9.018 -4.338,11.99 -2.892,2.973 -6.828,4.458 -11.809,4.458 -4.8,0 -8.61,-1.41 -11.433,-4.232 -2.822,-2.82 -4.233,-6.673 -4.233,-11.554 m -3.136,-16.448 c 0.582,0 1.105,0.041 1.567,0.121 0.462,0.08 0.853,0.18 1.175,0.301 v 7.38 c -0.382,-0.28 -0.939,-0.546 -1.672,-0.798 -0.733,-0.25 -1.622,-0.376 -2.666,-0.376 -1.788,0 -3.299,0.753 -4.534,2.26 -1.235,1.505 -1.853,3.825 -1.853,6.958 v 15.635 h -7.29 V 98.624 h 7.29 v 4.88 h 0.12 c 0.663,-1.687 1.667,-3.007 3.013,-3.96 1.346,-0.954 2.962,-1.432 4.85,-1.432 m -27.956,26.18 c 1.084,0 2.28,-0.25 3.585,-0.754 a 15.06,15.06 0 0 0 3.615,-1.988 v 6.778 c -1.165,0.663 -2.485,1.165 -3.962,1.506 -1.475,0.342 -3.098,0.512 -4.865,0.512 -4.559,0 -8.265,-1.44 -11.116,-4.323 -2.852,-2.88 -4.278,-6.562 -4.278,-11.04 0,-4.98 1.456,-9.083 4.37,-12.307 2.91,-3.224 7.037,-4.835 12.38,-4.835 1.366,0 2.746,0.176 4.143,0.527 1.395,0.352 2.504,0.758 3.328,1.22 v 6.99 c -1.125,-0.824 -2.274,-1.462 -3.45,-1.914 a 9.966,9.966 0 0 0 -3.599,-0.678 c -2.872,0 -5.192,0.934 -6.959,2.802 -1.768,1.868 -2.652,4.388 -2.652,7.562 0,3.132 0.85,5.573 2.546,7.32 1.697,1.748 4.002,2.621 6.914,2.621 m -22.112,5.302 h -7.29 V 98.624 h 7.29 z M 218.62,89.677 c 0,-1.205 0.437,-2.214 1.311,-3.028 0.874,-0.813 1.913,-1.22 3.118,-1.22 1.285,0 2.35,0.417 3.193,1.25 0.844,0.834 1.266,1.833 1.266,2.998 0,1.185 -0.432,2.18 -1.296,2.982 -0.864,0.804 -1.918,1.205 -3.163,1.205 -1.246,0 -2.295,-0.406 -3.148,-1.219 -0.854,-0.815 -1.28,-1.803 -1.28,-2.968 m -6.274,-3.284 v 43.2 h -7.5 v -33.86 h -0.12 l -13.408,33.86 h -4.97 l -13.738,-33.86 h -0.09 v 33.86 h -6.929 v -43.2 h 10.755 l 12.412,32.024 h 0.18 l 13.105,-32.024 z" class="fill-current-color fill-link-text-forced-colors color-text-subtle" id="path2" fill="#666666"></path><path d="M 106.214,106.214 H 71.996 V 71.996 h 34.218 z" fill="#f25022" id="path3"></path><path d="M 143.993,106.214 H 109.775 V 71.996 h 34.218 z" fill="#7fba00" id="path4"></path><path d="M 106.214,143.993 H 71.996 v -34.218 h 34.218 z" fill="#00a4ef" id="path5"></path><path d="m 143.993,143.993 h -34.218 v -34.218 h 34.218 z" fill="#ffb900" id="path6"></path></g></g></svg>