<?xml version="1.0" encoding="UTF-8"?>
<svg viewBox="0 180 500 140" focusable="false" xmlns="http://www.w3.org/2000/svg"><title>Stephens Logo</title><path fill="#1e1e1e" d="M69.667 212.274l-4.158 2.019c-7.03-11.387-17.953-24.067-32.322-24.067-10.766 0-19.098 8.359-19.098 19.167 0 12.536 13.213 17.58 23.273 20.608 18.097 5.623 36.606 10.526 36.606 33.442 0 18.447-14.345 30.732-32.158 30.732-9.045 0-16.802-4.207-22.551-4.207-3.163 0-6.609 2.03-8.766 4.207L0 266.032l4.308-2.017c8.772 11.672 21.699 25.37 36.64 25.37 11.065 0 21.262-7.495 21.262-19.462 0-33.435-58.761-16.428-58.761-55.047 0-18.166 12.647-29.446 30.464-29.446 4.59 0 7.18.87 11.492 2.465 3.302 1.021 4.59 1.741 7.753 1.741 2.44 0 5.32-.72 7.041-2.756"></path><path fill="#1e1e1e" d="M68.522 226.789v-3.48c10.623-4.488 17.081-15.6 18.38-26.582h4.764V222h20.1v4.789h-20.1v43.751c0 6.5-.723 16.032 8.18 16.032 5.599 0 9.047-3.614 12.636-7.227l2.437 2.89c-5.456 6.206-12.634 11.957-21.39 11.957-12.65 0-14.517-10.369-14.517-20.625v-46.778"></path><path fill="#1e1e1e" d="M170.721 252.956c0-17.02-12.361-32.517-30.251-32.517-20.048 0-32.835 19.11-32.835 37.558 0 19.743 14.651 36.188 34.692 36.188 11.732 0 21.782-7.077 27.818-17.021l-2.444-2.301c-5.606 7.777-13.928 13.113-23.513 13.113-17.89 0-22.042-20.896-22.042-35.02h48.575zm-47.939-5.449c.283-9.836 5.304-22.269 17.501-22.269 12.478 0 16.792 12.295 15.93 22.269"></path><path fill="#1e1e1e" d="M190.572 285.38c4.74 4.906 11.345 8.808 18.386 8.808 20.527 0 29.413-20.785 29.273-38.686.14-15.725-9.315-35.063-27.265-35.063-8.04 0-14.365 4.036-20.394 9.24v-10.175l-22.128 8.393v3.423c8.605 0 9.185 2.753 9.478 10.403v56.34c0 13.581 0 14.445-9.768 15.748v4.19h32.036v-4.19c-9.618-1.303-9.618-2.167-9.618-15.748V285.38zm0-50.077c3.163-3.755 10.054-8.655 15.081-8.655 15.23 0 18.965 17.024 18.965 29.296 0 12.264-3.016 32.035-18.676 32.035-6.029 0-11.205-4.478-15.37-8.37"></path><path fill="#1e1e1e" d="M259.617 272.84c0 13.578 0 14.445 9.75 15.604v4.183h-32.018v-4.183c9.62-1.159 9.62-2.026 9.62-15.604v-65.848c0-12.577-2.014-11.994-12.207-12.717v-4.19L259.617 182v49.665c6.448-5.918 16.622-11.236 25.367-11.236 15.081 0 18.097 10.948 18.097 25.969v26.442c0 13.578 0 14.445 9.624 15.604v4.183h-31.876v-4.183c9.605-1.159 9.605-2.026 9.605-15.604v-26.442c0-10.111-2.008-18.347-11.612-18.347-7.454 0-14.042 5.061-19.205 9.686m112.935 15.219c0-17.02-12.358-32.517-30.255-32.517-20.044 0-32.824 19.11-32.824 37.558 0 19.743 14.647 36.188 34.685 36.188 11.732 0 21.789-7.077 27.821-17.021l-2.444-2.301c-5.609 7.777-13.928 13.113-23.513 13.113-17.893 0-22.038-20.896-22.038-35.02h48.568zm-47.942-5.449c.289-9.836 5.313-22.269 17.511-22.269 12.474 0 16.781 12.295 15.919 22.269"></path><path fill="#1e1e1e" d="M393.485 272.82c0 13.601 0 14.469 9.617 15.624v4.187h-32.039v-4.187c9.765-1.155 9.765-2.023 9.765-15.624v-31.09c-.427-7.66-.57-10.406-9.328-10.406v-3.426l21.985-8.39v12.157c5.466-5.918 14.534-11.24 22.591-11.24 5.037 0 10.07 2.02 13.669 5.614 4.747 5.338 4.887 11.98 4.887 18.772v28.029c0 13.581 0 14.449 9.621 15.604v4.187h-32.209v-4.187c9.931-1.155 9.931-2.023 9.931-15.604v-25.286c0-8.668-.576-19.499-11.942-19.499-6.325 0-12.234 5.205-16.548 9.538m103.5 5.379l-3.436 1.873c-7.034-9.087-15.633-19.607-27.238-19.607-5.593 0-11.325 3.895-11.325 9.807 0 17.58 45.012 10.948 45.012 37.333 0 12.389-11.898 21.8-23.367 21.8-3.582 0-6.165-1.018-9.464-2.033-1.715-.583-3.443-1.309-5.3-1.309-3.01 0-5.876 1.309-8.306 3.342l-8.872-24.543 3.152-1.584c5.437 9.076 18.9 21.335 29.646 21.335 6.591 0 12.62-5.051 12.62-11.82 0-18.598-44.556-10.52-44.556-36.617 0-12.251 11.159-20.507 22.478-20.507 5.16 0 10.18 2.325 14.182 2.422 2.723 0 4.74-1.306 6.461-3.356"></path></svg>