<?xml version="1.0" encoding="UTF-8"?>
<svg viewBox="25 250 610 150" focusable="false" xmlns="http://www.w3.org/2000/svg"><title>Wharton Logo</title><path fill="#FFFFFF" d="M151.2,252.6H27c0,0,0,61.6,0,62c-0.1,26.9,14.9,46.5,27.4,58.1c13.8,12.8,29,20.1,34.1,21.3l0.6,0.1l0.6-0.1 c5.1-1.1,20.3-8.5,34.1-21.3c12.6-11.6,27.5-31.2,27.4-58.1C151.2,313.8,151.2,252.6,151.2,252.6L151.2,252.6z"></path><path fill="#990000" d="M143.6,278.6L143.6,278.6c0.2,0.1,0.3,0.3,0.5,0.5c0.1,0.2,0.2,0.5,0.2,0.7c0,0.3-0.1,0.5-0.2,0.7 c-0.1,0.2-0.3,0.3-0.5,0.5c-0.3,0.2-0.6,0.4-0.6,0.8v2.2h-13.1h-13.1v-2.2c0-0.3-0.3-0.6-0.6-0.8c-0.2-0.1-0.3-0.3-0.5-0.5 c-0.1-0.2-0.2-0.5-0.2-0.7c0-0.3,0.1-0.5,0.2-0.7c0.1-0.2,0.3-0.3,0.5-0.5c0.3-0.2,0.6-0.4,0.6-0.8v-7.3c0-0.3-0.3-0.6-0.6-0.8 c-0.2-0.1-0.3-0.3-0.5-0.5c-0.1-0.2-0.2-0.5-0.2-0.7c0-0.3,0.1-0.5,0.2-0.7c0.1-0.2,0.3-0.3,0.5-0.5c0.3-0.2,0.6-0.4,0.6-0.8v-2.3 h0.3c1.5,0,2.8,0,3.8-0.4c0.3-0.1,0.8-0.4,1.1-0.6c0.8-0.5,1.7-1,3.1-1c1.1,0,2.1,0.4,3,0.8c0.6,0.3,1.3,0.5,1.7,0.5h0.2 c0.4,0,1-0.2,1.7-0.5c0.9-0.3,1.9-0.8,3-0.8c1.3,0,2.3,0.6,3.1,1c0.3,0.2,0.7,0.5,1.1,0.6c0.9,0.4,2.3,0.4,3.8,0.4h0.3v2.2 c0,0.3,0.3,0.6,0.6,0.8c0.1,0.1,0.3,0.3,0.5,0.5c0.1,0.2,0.2,0.5,0.2,0.7c0,0.3-0.1,0.5-0.2,0.7c-0.1,0.2-0.3,0.3-0.5,0.5 c-0.3,0.2-0.6,0.4-0.6,0.8v7.2C143,278.1,143.3,278.3,143.6,278.6L143.6,278.6z M111.6,282.3c-2,3.2-5.9,4-6,4 c-0.8,0.1-1.5,0.2-2.4,0.2l0,0c-4,0-7.8-1.7-11.6-3.8c-0.4-0.2-0.9-0.5-1.4-0.8c-2.4-1.3-5.8-3.2-8.7-3.2c-0.8,0-1.6,0.1-2.4,0.6 l-0.1,0.1v0.1c0,0.3-0.1,0.8-0.2,1c-0.5,1.3-1.9,2.5-2.7,3.1c-1.7,1.2-3.8,2.4-6.3,2.4c-0.4,0-0.8-0.1-1-0.1 c-0.5-0.1-0.8-0.4-1.1-0.8c-0.1-0.2-0.3-0.4-0.3-0.6c-0.1-0.2-0.1-0.3-0.1-0.6v-0.1l-0.1-0.1c-1-0.3-1.6-1-1.6-1.7 c0-0.6,0.4-1.1,0.8-1.6c0.7-0.8,1.3-1.5,0.3-2.4c-0.1-0.1-0.2-0.1-0.3-0.2c-0.1-0.1-0.3-0.2-0.3-0.3c-0.8-0.9-0.3-2.7-0.1-3.8v-0.1 c0.3-1.2,0.8-2.4,1.5-3.8c0.9-1.8,2-3.9,3.5-5.1c0,0,0.1-0.1,0.1,0c0.1,0,0.1,0,0.1,0.1s0.2,0.3,0.4,0.7l0.3,0.4l0.1-0.5 c0.4-1.3,1.1-2.2,2.1-2.5c1-0.3,2,0.1,2.5,0.5l0.2,0.1l0.1-0.2c0.3-0.5,0.9-1.1,1.9-1.2c1-0.1,1.9,0.7,2.4,1.1l0.1,0.1l0.1-0.1 c0.5-0.4,1.7-1.3,2.9-1.1c1.2,0.1,1.6,1.2,1.7,1.6l0.1,0.3l0.3-0.1c0.6-0.3,1.6-0.6,2.6,0c0.6,0.4,0.7,1.1,0.7,1.6v0.3l0.3-0.1 c0.8-0.1,2.2-0.2,3,0.6c0.6,0.7,0.7,1.5,0.6,2.2l-0.1,0.3l0.3-0.1c0.7-0.1,1.5,0,2,0.8c0.3,0.5,0.2,1.3,0.1,1.6l0,0.4l0.2,0.1 c0.4,0.1,1,0.3,1.3,0.9c0.1,0.4,0.1,1.1-0.1,1.9l-0.1,0.2l0.2,0.1c0.3,0.1,1,0.5,1.3,1.1c0.3,0.6,0.3,1.5-0.1,2.4l-0.1,0.1l0.1,0.1 c0.8,0.8,1.7,1.5,2.6,2.1c1.7,1.3,4.4,1.9,6.3,0.4c0.7-0.6,1-1.6,0.8-2.6c-0.2-0.8-0.8-1.5-1.6-1.7c-1.4-0.3-2.5,1-3.4,2.4 c0,0.1-0.1,0.1-0.1,0.1s-0.1-0.1-0.1-0.1c-0.8-1.9-0.8-3.6-0.1-4.9c0.6-1,1.9-1.8,3.3-2h0.2v-0.2c0-2.4,0.6-4,1.7-5.1 c0.7-0.6,1.9-1.3,4-1c0.1,0,0.1,0,0.1,0.1s0,0.1,0,0.1c-1.5,3.8-1.2,5.1-0.3,8.2c0.1,0.3,0.1,0.6,0.2,0.8l0,0 C113.1,277.8,112.9,280.3,111.6,282.3L111.6,282.3z M61.7,278.6L61.7,278.6c0.2,0.1,0.3,0.3,0.5,0.5c0.1,0.2,0.2,0.5,0.2,0.7 c0,0.3-0.1,0.5-0.2,0.7c-0.1,0.2-0.3,0.3-0.5,0.5c-0.3,0.2-0.6,0.4-0.6,0.8v2.2H48.1H35.1v-2.2c0-0.3-0.3-0.6-0.6-0.8 c-0.2-0.1-0.3-0.3-0.5-0.5c-0.1-0.2-0.2-0.5-0.2-0.7c0-0.3,0.1-0.5,0.2-0.7c0.1-0.2,0.3-0.3,0.5-0.5c0.3-0.2,0.6-0.4,0.6-0.8v-7.3 c0-0.3-0.3-0.6-0.6-0.8c-0.2-0.1-0.3-0.3-0.5-0.5c-0.1-0.2-0.2-0.5-0.2-0.7c0-0.3,0.1-0.5,0.2-0.7c0.1-0.2,0.3-0.3,0.5-0.5 c0.3-0.2,0.6-0.4,0.6-0.8v-2.3h0.3c1.5,0,2.8,0,3.8-0.4c0.3-0.1,0.8-0.4,1.1-0.6c0.8-0.5,1.7-1,3.1-1c1.1,0,2.1,0.4,3,0.8 c0.6,0.3,1.3,0.5,1.7,0.5h0.2c0.4,0,1-0.2,1.7-0.5c0.9-0.3,1.9-0.8,3-0.8c1.3,0,2.3,0.6,3.1,1c0.3,0.2,0.7,0.5,1.1,0.6 c0.9,0.4,2.3,0.4,3.8,0.4h0.3v2.2c0,0.3,0.3,0.6,0.6,0.8c0.1,0.1,0.3,0.3,0.5,0.5c0.1,0.2,0.2,0.5,0.2,0.7c0,0.3-0.1,0.5-0.2,0.7 c-0.1,0.2-0.3,0.3-0.5,0.5c-0.3,0.2-0.6,0.4-0.6,0.8v7.2C61.2,278.1,61.5,278.3,61.7,278.6L61.7,278.6z M30.1,255.9 c0,0,0.1,36,0,35.8h118c0-16.9,0-35.8,0-35.8H30.1L30.1,255.9z"></path><path fill="#011F5B" d="M70.7,277c0.4,0,0.8,0.1,1.2,0.4c0.1,0.1,0.3,0.2,0.3,0.3c0.3,0.3,0.3,0.7-0.1,0.9c-0.3,0.2-0.6,0.5-0.8,0.6 c-0.5,0.3-1.3,0.9-1.9,0.5c-0.3-0.2,0.3-0.6,0-1.6C69.4,277.3,70.1,277,70.7,277L70.7,277z"></path><path fill="#011F5B" d="M70.9,265.4c-1.3,1.3-2.3,3.1-3.1,4.7c-0.6,1.3-1.1,2.5-1.5,3.7v0.1c-0.2,0.8-0.7,2.6-0.1,3.3 c0.1,0.1,0.2,0.1,0.3,0.3c0.1,0.1,0.2,0.1,0.3,0.3c1.3,1.3,0.4,2.3-0.3,3.1c-0.3,0.5-0.8,0.9-0.8,1.3c0,0.9,1.1,1.3,1.5,1.3 c0.1,0.1,0.3,0.1,0.3,0.3c0,0.3,0.1,0.5,0.1,0.7c0.1,0.2,0.1,0.3,0.3,0.5c0.2,0.3,0.6,0.5,0.9,0.6c0.3,0.1,0.6,0.1,0.9,0.1 c2.4,0,4.4-1.2,6-2.4c1-0.7,2.2-1.9,2.5-2.8c0.1-0.3,0.1-0.5,0.1-0.8l-1.7-0.3c0,0,0,0-0.1,0c-0.2-0.1-0.3-0.2-0.3-0.3 c-0.1-0.3,0.3-0.6,0.8-1c0.2-0.1,0.3-0.3,0.6-0.3c0.9-0.6,1.6-1.2,2-1.5c-0.5-0.6-0.8-1.1-1.2-1.6c-0.3-0.4-0.5-0.7-0.7-0.9 c-0.8-0.9-2.3-1.5-3.5-0.7c-0.5,0.3-0.9,0.7-1.4,1c-0.3,0.3-0.8,0.6-1.2,1c-0.1,0.1-0.3,0.1-0.5-0.1c-0.1-0.1-0.1-0.3,0-0.5 c0.1-0.1,0.1-0.1,0.2-0.2c0.6-0.5,1.8-1.7,1.8-2.6C73.5,269.7,71.6,266.5,70.9,265.4L70.9,265.4z M81.5,278.4c2.9,0,6.3,1.8,8.9,3.3 c0.5,0.3,1,0.6,1.4,0.8c4.4,2.3,8.9,4.3,13.6,3.5c0,0,3.8-0.8,5.7-3.8c1.2-1.9,1.4-4.2,0.6-6.9c-0.1-0.3-0.1-0.6-0.2-0.8 c-0.8-2.8-1.3-4.5,0.1-8.1c-1.6-0.1-2.6,0.4-3.1,0.9c-1,1-1.5,2.6-1.5,5c0,0.2-0.1,0.3-0.3,0.4c-1.5,0.1-2.7,0.8-3.3,1.8 c-0.6,1-0.6,2.2-0.1,3.8c0.7-1,1.9-2.3,3.5-1.9c1,0.2,1.7,1,1.9,2c0.3,1.2-0.1,2.4-1,3.1c-2.1,1.7-5,1-6.9-0.4 c-2.2-1.6-4.4-3.7-6.7-6.3c-0.4-0.5-0.8-0.9-1.2-1.4c-1.5-1.7-3-3.5-4.8-4.9c-2.8-2.2-6.2-2.5-8.5-2.4c-1.6,0.1-4.7,0.5-6.8,1.8 c0.6,1.3,1.3,2.9,1.3,4.1c0,0.2-0.1,0.4-0.1,0.6c1.5-0.9,3.3-0.3,4.4,0.8c0.2,0.3,0.5,0.6,0.8,1c0.4,0.6,0.8,1.3,1.4,1.8 c0.1,0.1,0.1,0.2,0.1,0.3c0,0.1-0.1,0.2-0.1,0.3c0,0-1,0.7-2.4,1.7c-0.2,0.1-0.3,0.3-0.6,0.4l-0.1,0.1l1.2,0.2 C79.7,278.5,80.6,278.4,81.5,278.4L81.5,278.4z M103.2,286.8c-4.1,0-7.8-1.7-11.7-3.8c-0.4-0.2-0.9-0.5-1.4-0.8 c-3.1-1.7-7.8-4.2-10.8-2.6c0,0.4-0.1,0.8-0.2,1.1c-0.5,1.3-2,2.6-2.8,3.1c-1.7,1.3-3.8,2.5-6.4,2.5c-0.4,0-0.8-0.1-1.1-0.2 c-0.5-0.1-0.9-0.5-1.3-0.9c-0.1-0.2-0.3-0.4-0.4-0.7c-0.1-0.2-0.1-0.4-0.1-0.6c-1.1-0.2-1.8-1-1.8-1.9c0-0.7,0.5-1.3,0.9-1.7 c0.8-0.9,1-1.3,0.3-2c-0.1-0.1-0.1-0.1-0.3-0.2s-0.3-0.2-0.4-0.3c-0.9-1-0.4-2.8-0.1-4v-0.1c0.3-1.2,0.8-2.4,1.5-3.8 c0.9-1.9,2-3.9,3.6-5.2c0.1-0.1,0.2-0.1,0.3-0.1c0.1,0,0.2,0.1,0.3,0.1c0.1,0.1,0.7,1,1.3,2.4c2.8-1.7,6.7-1.8,7.2-1.9 c2.4-0.1,6,0.3,9,2.6c1.9,1.5,3.4,3.2,4.9,4.9c0.4,0.4,0.8,0.9,1.2,1.4c2.3,2.6,4.4,4.6,6.7,6.2c1.7,1.2,4.2,1.9,6,0.4 c0.6-0.5,0.9-1.5,0.7-2.4c-0.2-0.8-0.7-1.3-1.4-1.5c-1.3-0.3-2.3,1-3.1,2.2c-0.1,0.1-0.2,0.2-0.3,0.1c-0.1,0-0.3-0.1-0.3-0.2 c-0.8-2-0.9-3.8-0.1-5.1c0.7-1.1,1.9-1.9,3.5-2.2c0-2.4,0.6-4.2,1.7-5.2c0.7-0.6,2-1.4,4.2-1c0.1,0,0.2,0.1,0.3,0.2 c0.1,0.1,0.1,0.2,0,0.3c-1.5,3.7-1.1,5-0.3,8.1c0.1,0.3,0.1,0.6,0.2,0.8c0.8,3,0.6,5.5-0.8,7.6c-2.1,3.3-6,4.1-6.3,4.2 C104.7,286.7,104,286.8,103.2,286.8L103.2,286.8z"></path><path fill="#011F5B" d="M68.4,284.2c-0.3,0-0.7,0-1.1-0.1c-0.2,0-0.3-0.2-0.3-0.4c0-0.2,0.2-0.3,0.4-0.3c1.7,0.2,4.2,0,6.4-2.3 c0.1-0.1,0.3-0.1,0.6,0c0.1,0.1,0.1,0.3,0,0.6C72.6,283.3,70.6,284.2,68.4,284.2L68.4,284.2z"></path><path fill="#011F5B" d="M98.5,278.6c-0.1,0-0.1,0-0.1,0c-0.2-0.1-0.3-0.3-0.2-0.5c0.4-0.9,0.4-1.7,0.1-2.2c-0.4-0.8-1.3-1-1.3-1 c-0.1,0-0.2-0.1-0.2-0.2c-0.1-0.1-0.1-0.2,0-0.3c0.1-0.3,0.4-1.4,0.2-1.9c-0.1-0.4-1-0.6-1.3-0.6c-0.1,0-0.2-0.1-0.3-0.1 s-0.1-0.2,0-0.3c0.1-0.3,0.3-1.1,0.1-1.5c-0.6-0.8-2-0.4-2-0.4c-0.1,0.1-0.3,0-0.3-0.1s-0.1-0.2-0.1-0.3c0,0,0.4-1.3-0.4-2.2 c-1-1-3-0.4-3.1-0.4c-0.1,0.1-0.3,0-0.3-0.1s-0.1-0.2-0.1-0.3c0-0.1,0.3-1.1-0.3-1.6c-1.2-0.8-2.5,0.2-2.5,0.2 c-0.1,0.1-0.2,0.1-0.3,0.1c-0.1-0.1-0.2-0.1-0.2-0.3c0-0.1-0.2-1.5-1.5-1.7c-1.4-0.2-2.8,1.2-2.8,1.3c-0.1,0.1-0.1,0.1-0.3,0.1 c-0.1,0-0.2-0.1-0.3-0.1c0,0-1-1.3-2.2-1.2c-1.2,0.1-1.6,1.3-1.6,1.3c-0.1,0.1-0.1,0.2-0.3,0.2c-0.1,0-0.2,0-0.3-0.1 c0,0-1.2-1.1-2.4-0.7c-1.5,0.6-1.9,2.4-2,3l0,0c-0.1,0.2-0.2,0.3-0.4,0.3c-0.2-0.1-0.3-0.2-0.3-0.4l0,0c0.1-0.7,0.6-2.8,2.5-3.5 c1.1-0.4,2.2,0.1,2.7,0.6c0.3-0.5,0.9-1.3,2-1.3c1.2-0.1,2.1,0.8,2.5,1.2c0.6-0.5,1.8-1.3,3.1-1.2c1.1,0.1,1.7,1,1.9,1.7 c0.6-0.3,1.7-0.7,2.8,0c0.8,0.5,0.8,1.3,0.8,1.9c0.8-0.1,2.3-0.2,3.2,0.7c0.8,0.8,0.8,1.7,0.7,2.3c0.6-0.1,1.7-0.1,2.3,0.8 c0.3,0.6,0.3,1.3,0.1,1.8c0.5,0.1,1.2,0.4,1.5,1c0.2,0.6,0,1.5-0.1,2c0.4,0.1,1,0.6,1.4,1.3c0.4,0.8,0.3,1.7-0.1,2.8 C98.7,278.5,98.6,278.6,98.5,278.6L98.5,278.6z"></path><path fill="#011F5B" d="M96.7,283.4L96.7,283.4c-0.2,0-0.3-0.2-0.3-0.4c0.1-1.3-0.6-1.6-1.3-1.8c-0.2-0.1-0.3-0.1-0.5-0.2 c-0.3-0.2-0.4-0.7-0.4-1.1c0-0.5,0-1-0.4-1.5c-0.6-0.7-1.9-0.3-1.9-0.3c-0.1,0.1-0.3,0-0.3-0.1c-0.1-0.1-0.1-0.2-0.1-0.3 c0,0,0.2-1.5-0.6-2.2c-0.7-0.6-2-0.4-2.4-0.3c-0.1,0-0.2,0-0.3-0.1c-0.1-0.1-0.1-0.2-0.1-0.3c0.1-0.9-0.3-1.6-1-2.1 c-0.6-0.3-1.3-0.4-1.8-0.1c-1.5,0.8-2,0.8-3.6-0.3c-0.5-0.3-1-0.5-1.5-0.3c-0.6,0.1-1.1,0.7-1.5,1.5c-0.1,0.1-0.3,0.3-0.5,0.1 c-0.1-0.1-0.3-0.3-0.1-0.5c0.5-1,1.2-1.7,2-1.9c0.7-0.1,1.4,0,2,0.4c1.3,0.9,1.6,0.9,2.8,0.2c0.8-0.4,1.7-0.3,2.5,0.1 c0.8,0.5,1.3,1.3,1.3,2.3c0.6-0.1,1.8-0.1,2.6,0.6c0.8,0.6,0.9,1.7,0.9,2.2c0.6-0.1,1.6-0.1,2.2,0.6c0.6,0.6,0.6,1.4,0.6,1.9 c0,0.2,0,0.5,0.1,0.6c0.1,0,0.2,0.1,0.3,0.1c0.7,0.2,2,0.6,1.8,2.6C97,283.3,96.9,283.4,96.7,283.4L96.7,283.4z"></path><path fill="#011F5B" d="M62,279.8c0,0.1-0.1,0.3-0.1,0.4c-0.1,0.1-0.2,0.3-0.4,0.3c-0.3,0.3-0.8,0.6-0.8,1.2v1.6H48.1l0,0H35.6v-1.6 c0-0.6-0.4-0.9-0.8-1.2c-0.1-0.1-0.3-0.2-0.4-0.3c-0.1-0.1-0.1-0.3-0.1-0.4l0,0l0,0c0-0.1,0.1-0.3,0.1-0.4c0.1-0.1,0.2-0.3,0.4-0.3 c0.3-0.3,0.8-0.6,0.8-1.2v-7.3c0-0.6-0.4-0.9-0.8-1.2c-0.1-0.1-0.3-0.2-0.4-0.3c-0.1-0.1-0.1-0.3-0.1-0.4l0,0l0,0 c0-0.1,0.1-0.3,0.1-0.4c0.1-0.1,0.2-0.3,0.4-0.3c0.3-0.3,0.8-0.6,0.8-1.2V265c0,0,0,0,0.1,0c0.6,0,1.3,0,1.9-0.1v16.5h9.1 c0.1,0.6,0.8,1.1,1.5,1.1c0.7,0,1.3-0.5,1.5-1.1h9.1l0,0v-16.6c0.6,0.1,1.3,0.1,1.9,0.1h0.1v1.7c0,0.6,0.4,0.9,0.8,1.2 c0.1,0.1,0.3,0.2,0.4,0.3c0.1,0.1,0.1,0.3,0.1,0.4l0,0l0,0c0,0.1-0.1,0.3-0.1,0.4c-0.1,0.1-0.2,0.3-0.4,0.3 c-0.3,0.3-0.8,0.6-0.8,1.2v7.2c0,0.6,0.4,0.9,0.8,1.2c0.1,0.1,0.3,0.2,0.4,0.3C62,279.4,62,279.6,62,279.8L62,279.8L62,279.8 L62,279.8z M39.5,264.4c0.4-0.2,0.8-0.4,1.2-0.7c0.8-0.5,1.5-1,2.7-1c1,0,1.9,0.4,2.8,0.7c0.6,0.2,1.1,0.4,1.6,0.5v14.4h-0.1 c-0.7,0.1-1.7,0.3-2.8,0.8c-0.3,0.1-0.8,0.2-1.1,0.3c-1.1,0.3-2.2,0.3-3.3,0.3c-0.7,0-1.4,0-2,0.1v-15.3 C38.8,264.7,39.2,264.6,39.5,264.4L39.5,264.4z M50.1,263.5c0.8-0.3,1.8-0.7,2.8-0.7c1.2,0,1.9,0.5,2.7,1c0.3,0.2,0.8,0.5,1.2,0.7 c0.3,0.1,0.7,0.3,1.1,0.3v15.3c-0.6-0.1-1.3-0.1-2-0.1c-1.1,0-2.2,0-3.3-0.3c-0.3-0.1-0.8-0.2-1.1-0.3c-1.1-0.3-2.2-0.7-2.8-0.8 c0,0,0,0-0.1,0V264C49.1,263.9,49.6,263.7,50.1,263.5L50.1,263.5z M61.9,278.4c-0.3-0.2-0.5-0.3-0.5-0.6v-7.2c0-0.2,0.1-0.3,0.5-0.6 c0.2-0.1,0.4-0.3,0.6-0.6c0.1-0.3,0.3-0.6,0.3-0.8s-0.1-0.6-0.3-0.8c-0.1-0.2-0.3-0.4-0.6-0.6c-0.3-0.2-0.5-0.3-0.5-0.6V264h-0.6 l0,0c-1.3,0-2.8,0-3.7-0.4c-0.3-0.1-0.7-0.3-1-0.6c-0.8-0.5-1.7-1.1-3.2-1.1c-1.1,0-2.2,0.4-3.1,0.8c-0.6,0.3-1.2,0.5-1.6,0.5h-0.1 l0,0l0,0l0,0h-0.1c-0.4,0-1-0.2-1.6-0.5c-0.9-0.3-1.9-0.8-3.1-0.8c-1.4,0-2.4,0.6-3.2,1.1c-0.3,0.2-0.7,0.4-1,0.6 c-0.9,0.4-2.4,0.4-3.7,0.4l0,0H35v2.6c0,0.2-0.1,0.3-0.5,0.6c-0.2,0.1-0.4,0.3-0.6,0.6s-0.3,0.6-0.3,0.8c0,0.3,0.1,0.6,0.3,0.8 c0.1,0.2,0.3,0.4,0.6,0.6c0.3,0.2,0.5,0.3,0.5,0.6v7.2c0,0.2-0.1,0.3-0.5,0.6c-0.2,0.1-0.4,0.3-0.6,0.6c-0.1,0.3-0.3,0.6-0.3,0.8 c0,0.3,0.1,0.6,0.3,0.8c0.1,0.2,0.3,0.4,0.6,0.6c0.3,0.2,0.5,0.3,0.5,0.6v2.4l0,0l0,0l0,0h13.3h13.3l0,0l0,0l0,0v-2.4 c0-0.2,0.1-0.3,0.5-0.6c0.2-0.1,0.4-0.3,0.6-0.6s0.3-0.6,0.3-0.8c0-0.3-0.1-0.6-0.3-0.8C62.3,278.7,62.1,278.5,61.9,278.4 L61.9,278.4z M143.8,279.8c0,0.1-0.1,0.3-0.1,0.4c-0.1,0.1-0.2,0.3-0.4,0.3c-0.3,0.3-0.8,0.6-0.8,1.2v1.6h-12.5l0,0h-12.5v-1.6 c0-0.6-0.4-0.9-0.8-1.2c-0.1-0.1-0.3-0.2-0.4-0.3c-0.1-0.1-0.1-0.3-0.1-0.4l0,0l0,0c0-0.1,0.1-0.3,0.1-0.4c0.1-0.1,0.2-0.3,0.4-0.3 c0.3-0.3,0.8-0.6,0.8-1.2v-7.3c0-0.6-0.4-0.9-0.8-1.2c-0.1-0.1-0.3-0.2-0.4-0.3c-0.1-0.1-0.1-0.3-0.1-0.4l0,0l0,0 c0-0.1,0.1-0.3,0.1-0.4c0.1-0.1,0.2-0.3,0.4-0.3c0.3-0.3,0.8-0.6,0.8-1.2V265c0,0,0,0,0.1,0c0.6,0,1.3,0,1.9-0.1v16.5h9.1 c0.1,0.6,0.8,1.1,1.5,1.1c0.7,0,1.3-0.5,1.5-1.1h9.1l0,0v-16.6c0.6,0.1,1.3,0.1,1.9,0.1h0.1v1.7c0,0.6,0.4,0.9,0.8,1.2 c0.1,0.1,0.3,0.2,0.4,0.3c0.1,0.1,0.1,0.3,0.1,0.4l0,0l0,0c0,0.1-0.1,0.3-0.1,0.4c-0.1,0.1-0.2,0.3-0.4,0.3 c-0.3,0.3-0.8,0.6-0.8,1.2v7.2c0,0.6,0.4,0.9,0.8,1.2c0.1,0.1,0.3,0.2,0.4,0.3C143.7,279.4,143.8,279.6,143.8,279.8L143.8,279.8 L143.8,279.8L143.8,279.8z M121.3,264.4c0.4-0.2,0.8-0.4,1.2-0.7c0.8-0.5,1.5-1,2.7-1c1,0,1.9,0.4,2.8,0.7c0.6,0.2,1.1,0.4,1.6,0.5 v14.4h-0.1c-0.7,0.1-1.7,0.3-2.8,0.8c-0.3,0.1-0.8,0.2-1.1,0.3c-1.1,0.3-2.2,0.3-3.3,0.3c-0.7,0-1.4,0-2,0.1v-15.3 C120.6,264.7,120.9,264.6,121.3,264.4L121.3,264.4z M132,263.5c0.8-0.3,1.8-0.7,2.8-0.7c1.2,0,1.9,0.5,2.7,1 c0.3,0.2,0.8,0.5,1.2,0.7c0.3,0.1,0.7,0.3,1.1,0.3v15.3c-0.6-0.1-1.3-0.1-2-0.1c-1.1,0-2.2,0-3.3-0.3c-0.3-0.1-0.8-0.2-1.1-0.3 c-1.1-0.3-2.2-0.7-2.8-0.8c0,0,0,0-0.1,0V264C130.9,263.9,131.4,263.7,132,263.5L132,263.5z M143.7,278.4c-0.3-0.2-0.5-0.3-0.5-0.6 v-7.2c0-0.2,0.1-0.3,0.5-0.6c0.2-0.1,0.4-0.3,0.6-0.6c0.1-0.3,0.3-0.6,0.3-0.8s-0.1-0.6-0.3-0.8c-0.1-0.2-0.3-0.4-0.6-0.6 c-0.3-0.2-0.5-0.3-0.5-0.6V264h-0.6l0,0c-1.3,0-2.8,0-3.7-0.4c-0.3-0.1-0.7-0.3-1-0.6c-0.8-0.5-1.7-1.1-3.2-1.1 c-1.1,0-2.2,0.4-3.1,0.8c-0.6,0.3-1.2,0.5-1.6,0.5H130l0,0l0,0l0,0h-0.1c-0.4,0-1-0.2-1.6-0.5c-0.9-0.3-1.9-0.8-3.1-0.8 c-1.4,0-2.4,0.6-3.2,1.1c-0.3,0.2-0.7,0.4-1,0.6c-0.9,0.4-2.4,0.4-3.7,0.4l0,0h-0.6v2.6c0,0.2-0.1,0.3-0.5,0.6 c-0.2,0.1-0.4,0.3-0.6,0.6c-0.1,0.3-0.3,0.6-0.3,0.8c0,0.3,0.1,0.6,0.3,0.8c0.1,0.2,0.3,0.4,0.6,0.6c0.3,0.2,0.5,0.3,0.5,0.6v7.2 c0,0.2-0.1,0.3-0.5,0.6c-0.2,0.1-0.4,0.3-0.6,0.6c-0.1,0.3-0.3,0.6-0.3,0.8c0,0.3,0.1,0.6,0.3,0.8c0.1,0.2,0.3,0.4,0.6,0.6 c0.3,0.2,0.5,0.3,0.5,0.6v2.4l0,0l0,0l0,0h13.3h13.3l0,0l0,0l0,0v-2.4c0-0.2,0.1-0.3,0.5-0.6c0.2-0.1,0.4-0.3,0.6-0.6 c0.1-0.3,0.3-0.6,0.3-0.8c0-0.3-0.1-0.6-0.3-0.8C144.1,278.7,143.8,278.5,143.7,278.4L143.7,278.4z"></path><path fill="#174786" d="M140.6,343.8L89,294.1l-51.5,49.7c-4-8.4-6.7-18.2-6.6-29.2c0-0.3,0-10.3,0-22h116.2c0,11.7,0,21.7,0,22 C147.2,325.6,144.5,335.4,140.6,343.8L140.6,343.8z M124.1,348.9c-4,4-10.5,4-14.4,0c-4-4-4-10.5,0-14.4c4-4,10.5-4,14.4,0 C128.1,338.5,128.1,345,124.1,348.9L124.1,348.9z M78.8,316.3c0-5.6,4.6-10.2,10.2-10.2c5.6,0,10.2,4.6,10.2,10.2 c0,5.6-4.6,10.2-10.2,10.2C83.4,326.6,78.8,322,78.8,316.3L78.8,316.3z M121.1,369.7c-13.8,12.8-28.1,19.2-31.9,20.2 c-3.8-1-18.1-7.4-31.9-20.2c-0.3-0.3-0.7-0.6-1-1l33-35l33,35C121.8,369.1,121.4,369.4,121.1,369.7L121.1,369.7z M54,348.9 c-4-4-4-10.5,0-14.4c4-4,10.5-4,14.4,0c4,4,4,10.5,0,14.4C64.5,353,58,353,54,348.9L54,348.9z M147.2,256.6c0,3.8,0,19.9,0,34.2H31 c0-14.3,0-30.4,0-34.2H147.2L147.2,256.6z M148.8,255H29.3c0,0,0,58.8,0,59.6C29.2,340.7,43.8,359.6,56,371 c13.3,12.4,28.3,19.7,33,20.7h0.1h0.1c4.7-1,19.7-8.3,33-20.7c12.2-11.3,26.7-30.3,26.7-56.4C148.8,313.8,148.8,255,148.8,255 L148.8,255z"></path><path fill="#174786" d="M626.9,360.4H164.3v-1.8h462.7V360.4z M170.4,382.6c0,4.7,1.3,8.2,6.2,8.2c4.5,0,6.9-3.1,6.9-8.3v-9.2 c0-0.7-0.1-1.3-0.2-1.8c-0.1-1.2-1.3-1.7-2.8-1.8v-0.9h7.8v0.8c-1.6,0.1-2.7,0.6-2.8,1.8c-0.1,0.6-0.2,1.1-0.2,1.8v9.4 c0,7.2-4.5,9.8-8.8,9.8c-7.1,0-9.2-3.6-9.2-9.6v-9.9c0-3.1,0.1-2.9-2.8-3.3v-0.9h9v0.8c-3,0.3-2.8,0.2-2.8,3.3L170.4,382.6 L170.4,382.6L170.4,382.6z M207,391.9c-4.1-4.8-8.3-9.9-12.5-14.8v11.3c0,0.6,0.1,1,0.1,1.4c0.1,0.9,1,1.3,2.7,1.4v0.7h-6.3v-0.7 c1.3-0.1,2.1-0.5,2.2-1.4c0.1-0.4,0.1-0.8,0.1-1.4v-12.1c-0.7-0.9-1.5-1.7-3-1.7v-0.7h4.7c3.8,4.7,7.8,9.4,11.6,14h0.1v-10.6 c0-0.6-0.1-1-0.1-1.4c-0.1-0.9-1-1.3-2.7-1.4v-0.7h6.3v0.7c-1.2,0.1-2.1,0.5-2.2,1.4c-0.1,0.4-0.1,0.8-0.1,1.4v14.4H207V391.9 L207,391.9z M220.2,388.7c0,2.4-0.1,2.2,2.2,2.6v0.7h-6.9v-0.7c2.3-0.3,2.2-0.1,2.2-2.6v-11.5c0-2.4,0.1-2.2-2.2-2.6v-0.7h6.9v0.7 c-2.3,0.3-2.2,0.1-2.2,2.6V388.7L220.2,388.7L220.2,388.7z M233.4,374.6c-1.4,0-2.4,0.4-1.6,2.8c1,3.1,2.5,7.4,3.8,11.3 c1.7-3.9,3.2-7.8,4.8-11.8c0.6-1.6,0-2.4-1.7-2.4v-0.7h5.6v0.7c-0.8,0-1.6,0.3-2.2,1.5c-2.2,5.3-4.3,10.5-6.5,15.7h-1.3 c-1.5-4.4-3.3-9.4-4.9-13.8c-1-2.7-1.7-3.5-3-3.5v-0.7h6.9L233.4,374.6L233.4,374.6L233.4,374.6z M248.1,391.2 c2.3-0.3,2.2-0.1,2.2-2.6v-11.5c0-2.4,0.1-2.2-2.2-2.6v-0.7h11.5v4.1h-0.7c-0.3-1.9-0.8-3.3-2.6-3.3h-3.5v7.3h2.2 c1.6,0,2.3-0.6,2.4-2.2h0.7v5.5h-0.7c-0.1-1.5-0.6-2.4-2.4-2.4h-2.2v5.8c0,2.2,1,2.4,3.3,2.4c3.7,0,3.5-1,4.7-3.8h0.7l-0.8,4.6 h-12.6L248.1,391.2L248.1,391.2L248.1,391.2z M265.4,374h7.4c2.6,0,5.2,1.4,5.2,4.4c0,2.6-1.6,4.4-3.6,5.2l2.5,3.8 c1.3,1.9,2.7,3.7,3.6,4.2v0.3h-2.6c-1.5,0-2.4-2.8-5.4-7.9H270v4.7c0,2.4-0.1,2.2,2.2,2.6v0.7h-6.9v-0.7c2.3-0.3,2.2-0.1,2.2-2.6 v-11.5c0-2.4,0.1-2.2-2.2-2.6L265.4,374L265.4,374L265.4,374z M270,383.2h2.2c2.2,0,3.3-1.7,3.3-4.6c0-2.8-1.5-3.8-3.4-3.8h-2V383.2 L270,383.2L270,383.2z M293.2,377.8c-0.2-1.8-1.2-3.2-3.2-3.2c-1.5,0-2.8,0.8-2.8,2.6c0,1.8,1.8,2.8,4.4,4.8c2.7,2,3.6,3.3,3.6,5.5 c0,3.1-3.1,4.7-6.2,4.7c-1.7,0-3.1-0.3-4.4-0.8c-0.1-0.1-0.2-0.1-0.2-0.3v-3.7h0.7c0.3,2.8,2.2,4,4.1,4c1.8,0,3.3-1.4,3.3-3.3 c0-1.7-0.9-3.1-4.7-5.6c-1.4-0.9-3.1-1.9-3.1-4.7c0-2.3,2.6-4.1,5.5-4.1c1.1,0,2.6,0.1,3.6,0.5c0.1,0.1,0.2,0.1,0.2,0.3v3.3H293.2 L293.2,377.8L293.2,377.8z M304.4,388.7c0,2.4-0.1,2.2,2.2,2.6v0.7h-6.9v-0.7c2.3-0.3,2.2-0.1,2.2-2.6v-11.5c0-2.4,0.1-2.2-2.2-2.6 v-0.7h6.9v0.7c-2.3,0.3-2.2,0.1-2.2,2.6V388.7L304.4,388.7L304.4,388.7z M319.3,388.7c0,2.4-0.1,2.2,2.2,2.6v0.7h-6.9v-0.7 c2.3-0.3,2.2-0.1,2.2-2.6v-13.9h-2.4c-2.2,0-2.7,1.4-3.6,3.1h-0.6l0.7-3.9h14.2l0.7,3.9h-0.6c-0.8-1.7-1.4-3.1-3.6-3.1h-2.3V388.7 L319.3,388.7L319.3,388.7z M333.2,391.2c2.3-0.3,2.2-0.1,2.2-2.6v-4l-4-7.8c-0.8-1.7-1.5-2.3-2.7-2.3v-0.7h6.5v0.7 c-1.9,0-1.7,1-1.1,2.3l3.1,6.5l3.5-6.5c0.9-1.5,0.1-2.3-1.5-2.3v-0.7h5.3v0.7c-0.7,0-1.4,0.3-2.1,1.5l-4.3,7.8 c-0.3,0.5-0.3,1.3-0.3,1.9v2.8c0,2.4-0.1,2.2,2.2,2.6v0.7h-7V391.2L333.2,391.2L333.2,391.2z M356.3,385.8c0-4.4,3.8-10.8,9.3-10.8 c4.4,0,5.3,3,5.3,6c0,3.7-2.9,11.4-9.2,11.4C357.4,392.3,356.3,388.9,356.3,385.8L356.3,385.8L356.3,385.8z M367.9,379.3 c0-3.5-2.1-3.6-2.6-3.6c-3.6,0-6,6.5-6,10.8c0,1.7,0.3,4.9,2.8,4.9C365.9,391.3,367.9,385.1,367.9,379.3L367.9,379.3L367.9,379.3z M387.6,376l-0.8,0.7h-4.4c-1.6,7.9-4.3,18.4-6.2,23.5h-1.5l4.7-23.5h-3.1l0.3-1.4h3.1c1.7-7.1,7.6-7.8,9-7.8c0.8,0,2.4,0.1,2.8,0.6 l-0.4,2.2l-0.8,0.4c-0.5-0.9-1.5-1.9-2.9-1.9c-2,0-3.5,1.4-4.3,4.9l-0.3,1.6h4.9L387.6,376L387.6,376L387.6,376z M407.9,387.8 c0,3.1-0.1,2.9,2.8,3.3v0.8h-9V391c3-0.3,2.8-0.2,2.8-3.3v-14.9c0-3.1,0.1-2.9-2.8-3.3v-0.9h8.7c5.5,0,8.3,2.2,8.3,6.2 c0,4.8-4.3,7.4-9.4,7.1v-0.7c4.2,0.1,6-2.4,6-6c0-3.8-1.8-5.4-5.5-5.4h-2L407.9,387.8L407.9,387.8L407.9,387.8z M423.3,391.2 c2.3-0.3,2.2-0.1,2.2-2.6v-11.5c0-2.4,0.1-2.2-2.2-2.6v-0.7h11.5v4.1h-0.7c-0.3-1.9-0.8-3.3-2.6-3.3H428v7.3h2.2 c1.6,0,2.3-0.6,2.4-2.2h0.7v5.5h-0.7c-0.1-1.5-0.6-2.4-2.4-2.4H428v5.8c0,2.2,1,2.4,3.3,2.4c3.7,0,3.5-1,4.7-3.8h0.7l-0.8,4.6h-12.6 L423.3,391.2L423.3,391.2L423.3,391.2z M457.1,391.9c-4.1-4.8-8.3-9.9-12.5-14.8v11.3c0,0.6,0.1,1,0.1,1.4c0.1,0.9,1,1.3,2.7,1.4 v0.7h-6.3v-0.7c1.3-0.1,2.1-0.5,2.2-1.4c0.1-0.4,0.1-0.8,0.1-1.4v-12.1c-0.7-0.9-1.5-1.7-3-1.7v-0.7h4.7c3.8,4.7,7.8,9.4,11.6,14 h0.1v-10.6c0-0.6-0.1-1-0.1-1.4c-0.1-0.9-1-1.3-2.7-1.4v-0.7h6.3v0.7c-1.2,0.1-2.1,0.5-2.2,1.4c-0.1,0.4-0.1,0.8-0.1,1.4v14.4h-0.8 V391.9L457.1,391.9z M480,391.9c-4.1-4.8-8.3-9.9-12.5-14.8v11.3c0,0.6,0.1,1,0.1,1.4c0.1,0.9,1,1.3,2.7,1.4v0.7h-6.3v-0.7 c1.3-0.1,2.1-0.5,2.2-1.4c0.1-0.4,0.1-0.8,0.1-1.4v-12.1c-0.7-0.9-1.5-1.7-3-1.7v-0.7h4.7c3.8,4.7,7.8,9.4,11.6,14h0.1v-10.6 c0-0.6-0.1-1-0.1-1.4c-0.1-0.9-1-1.3-2.7-1.4v-0.7h6.3v0.7c-1.2,0.1-2.1,0.5-2.2,1.4c-0.1,0.4-0.1,0.8-0.1,1.4v14.4H480V391.9 L480,391.9z M496.7,377.8c-0.2-1.8-1.2-3.2-3.2-3.2c-1.5,0-2.8,0.8-2.8,2.6c0,1.8,1.8,2.8,4.4,4.8c2.7,2,3.6,3.3,3.6,5.5 c0,3.1-3.1,4.7-6.2,4.7c-1.7,0-3.1-0.3-4.4-0.8c-0.1-0.1-0.2-0.1-0.2-0.3v-3.7h0.7c0.3,2.8,2.2,4,4.1,4c1.8,0,3.3-1.4,3.3-3.3 c0-1.7-0.9-3.1-4.7-5.6c-1.4-0.9-3.1-1.9-3.1-4.7c0-2.3,2.6-4.1,5.5-4.1c1.1,0,2.6,0.1,3.6,0.5c0.1,0.1,0.2,0.1,0.2,0.3v3.3H496.7 L496.7,377.8L496.7,377.8z M507,391.2c2.3-0.3,2.2-0.1,2.2-2.6v-4l-4-7.8c-0.8-1.7-1.5-2.3-2.7-2.3v-0.7h6.5v0.7 c-1.9,0-1.8,1-1.1,2.3l3.1,6.5l3.5-6.5c0.9-1.5,0.1-2.3-1.5-2.3v-0.7h5.3v0.7c-0.7,0-1.4,0.3-2.1,1.5l-4.3,7.8 c-0.3,0.5-0.3,1.3-0.3,1.9v2.8c0,2.4-0.1,2.2,2.2,2.6v0.7h-6.9v-0.7H507L507,391.2z M522.6,391.2c2.3-0.3,2.2-0.1,2.2-2.6v-11.5 c0-2.4,0.1-2.2-2.2-2.6v-0.7h6.9v0.7c-2.3,0.3-2.2,0.1-2.2,2.6v11.9c0,1.8,1,1.9,3.3,1.9c3.7,0,3.5-1,4.7-3.8h0.6l-0.8,4.6h-12.6 L522.6,391.2L522.6,391.2L522.6,391.2z M544.9,374.6c-1.4,0-2.4,0.4-1.6,2.8c1,3.1,2.5,7.4,3.8,11.3c1.7-3.9,3.2-7.8,4.8-11.8 c0.6-1.6,0-2.4-1.7-2.4v-0.7h5.6v0.7c-0.8,0-1.6,0.3-2.2,1.5c-2.2,5.3-4.3,10.5-6.5,15.7h-1.3c-1.6-4.4-3.3-9.4-4.9-13.8 c-1-2.7-1.7-3.5-3-3.5v-0.7h6.9V374.6L544.9,374.6L544.9,374.6z M559.9,386l-1.2,3.4c-0.3,1,0.1,1.9,1.3,1.9v0.7h-4.7v-0.7 c0.7,0,1.5-0.4,1.9-1.3c1.1-2.2,4.1-10.6,6.3-16.3h1.5c1.7,5.1,4.4,13.1,5.2,15.3c0.6,1.5,1,2.2,2.1,2.2v0.7h-6v-0.7 c1.6,0,1.7-0.8,1.4-1.9l-1.1-3.3H559.9L559.9,386L559.9,386z M566.1,385l-2.7-8.3h-0.1l-3.1,8.3H566.1L566.1,385L566.1,385z M591.9,391.9c-4.1-4.8-8.3-9.9-12.5-14.8v11.3c0,0.6,0.1,1,0.1,1.4c0.1,0.9,1,1.3,2.7,1.4v0.7H576v-0.7c1.3-0.1,2.1-0.5,2.2-1.4 c0.1-0.4,0.1-0.8,0.1-1.4v-12.1c-0.7-0.9-1.5-1.7-3-1.7v-0.7h4.7c3.8,4.7,7.8,9.4,11.6,14h0.1v-10.6c0-0.6-0.1-1-0.1-1.4 c-0.1-0.9-1-1.3-2.7-1.4v-0.7h6.3v0.7c-1.2,0.1-2.1,0.5-2.2,1.4c-0.1,0.4-0.1,0.8-0.1,1.4v14.4h-0.8V391.9L591.9,391.9z M604,388.7 c0,2.4-0.1,2.2,2.2,2.6v0.7h-6.9v-0.7c2.3-0.3,2.2-0.1,2.2-2.6v-11.5c0-2.4,0.1-2.2-2.2-2.6v-0.7h6.9v0.7c-2.3,0.3-2.2,0.1-2.2,2.6 V388.7L604,388.7L604,388.7z M614.7,386l-1.2,3.4c-0.3,1,0.1,1.9,1.3,1.9v0.7h-4.7v-0.7c0.7,0,1.5-0.4,1.9-1.3 c1.1-2.2,4.1-10.6,6.3-16.3h1.5c1.7,5.1,4.4,13.1,5.2,15.3c0.6,1.5,1,2.2,2.1,2.2v0.7h-6v-0.7c1.6,0,1.7-0.8,1.3-1.9l-1.1-3.3H614.7 L614.7,386L614.7,386z M620.9,385l-2.7-8.3h-0.1l-3.1,8.3H620.9L620.9,385L620.9,385z M392,337.1v-19.2c-6.3,2.7-22.3,6.6-22.3,15 c0,5.6,4.2,10.1,10,10.1C384.9,343,388,340.1,392,337.1L392,337.1L392,337.1L392,337.1z M392.1,314.6v-14.7c0-5.4-3.5-6.8-8.6-6.8 c-5,0-12.2,3.3-12.2,6.3c0,0.8,0.3,1.8,0.3,3.1c0,5.1-1.3,8.6-7.2,8.6c-2.5,0-4.2-2.4-4.2-4.6c0-3,2.1-5.8,5-8.3 c6.3-5.1,16.2-9.3,24.4-9.3c8.5,0,13,5,13,13.1v36.2c0,2.3,0,6.3,3.2,6.3c2.2,0,3.5-2.8,3.9-4.6h2.2c-0.7,6.5-3.5,10.3-10.1,10.3 c-5.1,0-9.4-4.6-9.6-9.3c-6.5,4.7-10.9,9.3-19.5,9.3c-6.4,0-12.3-5-12.3-11.5C360.5,323.9,380.9,319.3,392.1,314.6L392.1,314.6 L392.1,314.6L392.1,314.6z M512.4,319.5c0,10.4,3.9,27.6,17.4,27.6c13.1,0,17.7-13.7,17.7-24.3c0-11.5-1.7-31.1-17.6-31.1 C516.5,291.6,512.4,309.4,512.4,319.5L512.4,319.5L512.4,319.5L512.4,319.5z M500.7,318.9c0-16.3,11.7-30.3,29-30.3 c18.1,0,29.8,13.6,29.8,30.8c0,17.6-11.4,30.6-29.7,30.6C511.2,350,500.7,336.1,500.7,318.9L500.7,318.9L500.7,318.9L500.7,318.9z M164.2,258.2V255h31.5v3.2c-5.8,0.1-8.1,0.1-8.1,3.6c0,0.1,0.1,1,0.6,2.4l19,64.5L234,252h2.2l23.3,75.8c0,0,18.4-55.4,18.4-63.2 c0-6.2-3.9-5.8-8.9-6.3V255h19.3c8.5,0,17.2-2.9,22.1-5.8v49c6-5.3,11-9.6,19.7-9.6c6.4,0,12.3,2.8,15.5,8.3 c2.9,4.7,3.5,9.2,3.5,14.4v27.2c0,7,1.8,7,7.9,7.4v2.6h-26.3v-2.6c5.7-0.4,7.5-0.4,7.5-7.4v-27.2c0-4.3,0-6.2-1.9-10.3 c-2.2-3.9-6.2-7.7-11.2-6.9c-7.6,1.3-10.6,4.8-14.5,8.6v35.7c0,7,1.8,7,7.6,7.4v2.6h-26.6v-2.6c6.3-0.4,8.1-0.4,8.1-7.4v-79.4 c0.1-0.1-2.2,0-5,0c-10.6,0.7-10.9,8.8-14.3,18.4l-23.9,72.6h-2.5l-23.6-72.8l-27.3,72.9h-2.4l-25.1-80c-1.5-4.2-2.2-7.7-4.4-10 C169.8,259,169.7,258.2,164.2,258.2L164.2,258.2L164.2,258.2L164.2,258.2z M587.2,348.5V346c-6-0.4-7.8-0.4-7.8-7.4v-32 c0-6.3,8.3-11.9,14.2-11.9c9,0,13.8,5.7,13.8,14.2v29.7c0,7-1.8,7-8.1,7.4v2.6h27.4V346c-4.7-0.4-8.5-0.4-8.5-7.4v-32 c0-10.1-10.2-17.8-20.2-17.8c-8.8,0-13.1,4-18.8,9.7v-9.7c-6,2.2-12.3,5.3-18.8,6.2v2.2c5.8,0.6,7.8,2.4,7.8,7.6v34 c0,7-1.8,7-8.1,7.4v2.6H587.2L587.2,348.5L587.2,348.5L587.2,348.5z M442.6,348.5V346c-7.1-0.4-8.9-0.4-8.9-7.4v-35.8 c0-2.2,3.6-5.6,7.5-5.6c3.6-0.1,4.2,4.2,8.8,4.2c5.6,0,6.9-3,6.9-7c0-4.2-4.5-6.6-9.6-6.6c-6,0-10.6,5.1-13.8,9.7v-9.2 c-6.3,2.8-13.1,5.6-19.3,6.5v2.2c6.2,0.6,8.6,2.1,8.6,7.4v34.2c0,7-1.8,7-7.8,7.4v2.6H442.6L442.6,348.5L442.6,348.5L442.6,348.5z M500.3,292l2-7.4h-23.8v-12h-1.4c-5.6,6.6-10.9,12.2-17.4,17.9v1.6h7.6v40.7c0,9.7,4.4,17.7,14.8,17.7c9,0,15.8-6.5,19.5-10.9 l-1.7-2.3c-3.3,3.7-7.6,5.8-11.5,5.8c-8,0-10-4.3-10-11.7V292H500.3L500.3,292L500.3,292L500.3,292z"></path></svg>