<svg xmlns:xlink="http://www.w3.org/1999/xlink" xmlns="http://www.w3.org/2000/svg" id="Layer_1" data-name="Layer 1" viewBox="0 0 500 500" width="500"  height="500" ><defs><style>.cls-1{fill:#407bff;}.cls-10,.cls-11,.cls-13,.cls-14,.cls-2,.cls-3,.cls-4,.cls-5,.cls-8,.cls-9{fill:#fff;}.cls-2{opacity:0.5;}.cls-10,.cls-13,.cls-14,.cls-2,.cls-3,.cls-4,.cls-5,.cls-6,.cls-8,.cls-9{isolation:isolate;}.cls-3{opacity:0.8;}.cls-4,.cls-6{opacity:0.3;}.cls-5{opacity:0.2;}.cls-7{fill:#263238;}.cls-8{opacity:0.4;}.cls-9{opacity:0.6;}.cls-10{opacity:0.1;}.cls-12,.cls-13{opacity:0.7;}.cls-14{opacity:0.9;}</style></defs><g id="freepik--Rocket--inject-2"><polygon class="cls-1" points="267.34 374.82 276.85 418.46 267.34 396.64 270.96 449.56 259.5 401.13 259.5 476.44 250.65 408.3 241.85 469.27 241.7 399.93 233.63 445.97 233.63 397.54 218.99 428.63 233.63 374.82 267.34 374.82"/><polygon class="cls-2" points="240.41 374.82 233.63 413.5 233.63 397.54 233.63 374.82 240.41 374.82"/><polygon class="cls-3" points="241.85 436.81 241.72 374.82 259.5 374.82 259.5 401.13 259.5 443.97 250.65 375.83 241.85 436.81"/><polygon class="cls-4" points="260.96 374.82 267.34 374.82 268.4 379.71 269.98 402.7 267.34 396.64 267.83 403.8 260.96 374.82"/><polygon class="cls-1" points="302.79 366.63 297.66 390.1 302.79 378.37 300.82 406.81 307 380.77 307 421.28 311.75 384.63 316.48 417.42 316.56 380.13 320.91 404.88 320.91 378.84 328.78 395.56 320.91 366.63 302.79 366.63"/><polygon class="cls-2" points="317.25 366.63 320.91 387.42 320.91 378.84 320.91 366.63 317.25 366.63"/><polygon class="cls-5" points="316.48 399.96 316.54 366.63 307 366.63 307 380.77 307 403.82 311.75 367.17 316.48 399.96"/><polygon class="cls-4" points="306.2 366.63 302.79 366.63 302.21 369.26 301.37 381.63 302.79 378.37 302.52 382.21 306.2 366.63"/><polygon class="cls-1" points="177.3 366.63 172.19 390.1 177.3 378.37 175.35 406.81 181.51 380.77 181.51 421.28 186.27 384.63 190.99 417.42 191.07 380.13 195.42 404.88 195.42 378.84 203.29 395.56 195.42 366.63 177.3 366.63"/><polygon class="cls-2" points="191.77 366.63 195.42 387.42 195.42 378.84 195.42 366.63 191.77 366.63"/><polygon class="cls-5" points="190.99 399.96 191.07 366.63 181.51 366.63 181.51 380.77 181.51 403.82 186.27 367.17 190.99 399.96"/><polygon class="cls-4" points="180.72 366.63 177.3 366.63 176.72 369.26 175.88 381.63 177.3 378.37 177.03 382.21 180.72 366.63"/><path class="cls-1" d="M357.87,332.53,252.39,145a4.26,4.26,0,0,0-7.41,0L139.46,332.53a4.27,4.27,0,0,0,1.64,5.8,4.15,4.15,0,0,0,2.07.54h211a4.25,4.25,0,0,0,4.22-4.31A4.36,4.36,0,0,0,357.87,332.53Z"/><path class="cls-6" d="M357.87,332.53,252.39,145a4.26,4.26,0,0,0-7.41,0L139.46,332.53a4.27,4.27,0,0,0,1.64,5.8,4.15,4.15,0,0,0,2.07.54h211a4.25,4.25,0,0,0,4.22-4.31A4.36,4.36,0,0,0,357.87,332.53Z"/><path class="cls-7" d="M298.86,366.9l5.08-21H322.4l5.07,21A37.42,37.42,0,0,1,298.86,366.9Z"/><path class="cls-5" d="M322.47,345.86s.76,3.15,1.18,4.93a37.37,37.37,0,0,1-20.86,0l1.2-4.93Z"/><path class="cls-8" d="M324.94,356.07c.33,1.33.66,2.67,1,3.94a42.58,42.58,0,0,1-25.38,0l1-3.94A60.53,60.53,0,0,0,324.94,356.07Z"/><path class="cls-1" d="M293.72,344.37a50.7,50.7,0,0,0,39,0V188.16a66.4,66.4,0,0,0-19.49-47.1,66.34,66.34,0,0,0-19.51,47.1Z"/><path class="cls-1" d="M332.72,188.16V335.37a59.39,59.39,0,0,1-39,0V188.16a66.34,66.34,0,0,1,19.51-47.1A66.4,66.4,0,0,1,332.72,188.16Z"/><path class="cls-8" d="M332.72,188.16V335.37a59.39,59.39,0,0,1-39,0V188.16a66.34,66.34,0,0,1,19.51-47.1A66.4,66.4,0,0,1,332.72,188.16Z"/><path class="cls-1" d="M332.72,188.16V298.75a71,71,0,0,1-39,0V188.16a66.34,66.34,0,0,1,19.51-47.1A66.4,66.4,0,0,1,332.72,188.16Z"/><path class="cls-9" d="M332.72,188.16V298.75a71,71,0,0,1-39,0V188.16a66.34,66.34,0,0,1,19.51-47.1A66.4,66.4,0,0,1,332.72,188.16Z"/><path class="cls-1" d="M332.72,188.16v57.9a70.82,70.82,0,0,1-39,0v-57.9a66.34,66.34,0,0,1,19.51-47.1A66.4,66.4,0,0,1,332.72,188.16Z"/><path class="cls-3" d="M332.72,188.16v57.9a70.82,70.82,0,0,1-39,0v-57.9a66.34,66.34,0,0,1,19.51-47.1A66.4,66.4,0,0,1,332.72,188.16Z"/><path class="cls-1" d="M332.72,188.16v6.77a70.82,70.82,0,0,1-39,0v-6.77a66.34,66.34,0,0,1,19.51-47.1A66.4,66.4,0,0,1,332.72,188.16Z"/><path class="cls-8" d="M332.72,188.16v6.77a70.82,70.82,0,0,1-39,0v-6.77a66.34,66.34,0,0,1,19.51-47.1A66.4,66.4,0,0,1,332.72,188.16Z"/><path class="cls-7" d="M173.42,366.9l5.08-21H197l5.07,21A37.47,37.47,0,0,1,173.42,366.9Z"/><path class="cls-5" d="M197,345.86s.76,3.15,1.2,4.93a37.44,37.44,0,0,1-20.88,0l1.2-4.93Z"/><path class="cls-8" d="M199.47,356.07c.32,1.33.64,2.67,1,3.94a42.74,42.74,0,0,1-25.38,0l1-3.94A60.53,60.53,0,0,0,199.47,356.07Z"/><path class="cls-1" d="M168.23,344.37a50.84,50.84,0,0,0,39,0V188.16a66.42,66.42,0,0,0-19.51-47.1,66.42,66.42,0,0,0-19.51,47.1Z"/><path class="cls-1" d="M207.27,188.16V335.37a59.45,59.45,0,0,1-39,0V188.16a66.38,66.38,0,0,1,19.51-47.1A66.42,66.42,0,0,1,207.27,188.16Z"/><path class="cls-8" d="M207.27,188.16V335.37a59.45,59.45,0,0,1-39,0V188.16a66.38,66.38,0,0,1,19.51-47.1A66.42,66.42,0,0,1,207.27,188.16Z"/><path class="cls-1" d="M207.27,188.16V298.75a71.08,71.08,0,0,1-39,0V188.16a66.38,66.38,0,0,1,19.51-47.1A66.42,66.42,0,0,1,207.27,188.16Z"/><path class="cls-9" d="M207.27,188.16V298.75a71.08,71.08,0,0,1-39,0V188.16a66.38,66.38,0,0,1,19.51-47.1A66.42,66.42,0,0,1,207.27,188.16Z"/><path class="cls-1" d="M207.27,188.16v57.9a70.89,70.89,0,0,1-39,0v-57.9a66.38,66.38,0,0,1,19.51-47.1A66.42,66.42,0,0,1,207.27,188.16Z"/><path class="cls-3" d="M207.27,188.16v57.9a70.89,70.89,0,0,1-39,0v-57.9a66.38,66.38,0,0,1,19.51-47.1A66.42,66.42,0,0,1,207.27,188.16Z"/><path class="cls-1" d="M207.27,188.16v6.77a70.89,70.89,0,0,1-39,0v-6.77a66.38,66.38,0,0,1,19.51-47.1A66.42,66.42,0,0,1,207.27,188.16Z"/><path class="cls-8" d="M207.27,188.16v6.77a70.89,70.89,0,0,1-39,0v-6.77a66.38,66.38,0,0,1,19.51-47.1A66.42,66.42,0,0,1,207.27,188.16Z"/><path class="cls-7" d="M227.3,379,235.58,345h29.81L273.67,379A60.31,60.31,0,0,1,227.3,379Z"/><path class="cls-5" d="M265.39,345l1.93,8a60.32,60.32,0,0,1-33.69,0l2-8Z"/><path class="cls-8" d="M269.4,361.5l1.56,6.38a69.06,69.06,0,0,1-40.95,0l1.54-6.36A98,98,0,0,0,269.4,361.5Z"/><path class="cls-1" d="M219,342.61a82,82,0,0,0,63,0V90.49a107.14,107.14,0,0,0-31.49-76,107.22,107.22,0,0,0-31.49,76Z"/><path class="cls-1" d="M282,90.42V328.16a96.16,96.16,0,0,1-63,0V90.42a107.26,107.26,0,0,1,31.49-76A107.17,107.17,0,0,1,282,90.42Z"/><path class="cls-8" d="M282,90.42V328.16a96.16,96.16,0,0,1-63,0V90.42a107.26,107.26,0,0,1,31.49-76A107.17,107.17,0,0,1,282,90.42Z"/><path class="cls-1" d="M282,90.42V269a114.45,114.45,0,0,1-63,0V90.42a107.26,107.26,0,0,1,31.49-76A107.17,107.17,0,0,1,282,90.42Z"/><path class="cls-9" d="M282,90.42V269a114.45,114.45,0,0,1-63,0V90.42a107.26,107.26,0,0,1,31.49-76A107.17,107.17,0,0,1,282,90.42Z"/><path class="cls-1" d="M282,90.42v93.49a114.45,114.45,0,0,1-63,0V90.42a107.26,107.26,0,0,1,31.49-76A107.17,107.17,0,0,1,282,90.42Z"/><path class="cls-3" d="M282,90.42v93.49a114.45,114.45,0,0,1-63,0V90.42a107.26,107.26,0,0,1,31.49-76A107.17,107.17,0,0,1,282,90.42Z"/><path class="cls-1" d="M282,90.42v10.91a114.63,114.63,0,0,1-63,0V90.42a107.26,107.26,0,0,1,31.49-76A107.17,107.17,0,0,1,282,90.42Z"/><path class="cls-10" d="M282,90.42v10.91a114.63,114.63,0,0,1-63,0V90.42a107.26,107.26,0,0,1,31.49-76A107.17,107.17,0,0,1,282,90.42Z"/><circle class="cls-1" cx="250.48" cy="140.88" r="18.34" transform="translate(71.3 365.56) rotate(-80.78)"/><path class="cls-1" d="M250.48,159.15a18.32,18.32,0,0,0,18.28-16.92v1.39a18.35,18.35,0,0,1-36.69,0v-1.39A18.32,18.32,0,0,0,250.48,159.15Z"/><path class="cls-6" d="M250.48,159.15a18.32,18.32,0,0,0,18.28-16.92v1.39a18.35,18.35,0,0,1-36.69,0v-1.39A18.32,18.32,0,0,0,250.48,159.15Z"/><circle class="cls-11" cx="250.48" cy="140.88" r="12.96" transform="translate(71.3 365.56) rotate(-80.78)"/><path class="cls-1" d="M251.16,153.77l-5.31-25a12.69,12.69,0,0,1,4.31-.87l5.3,24.91A13,13,0,0,1,251.16,153.77Z"/><path class="cls-1" d="M246.32,153.1l-4.62-21.73a14.45,14.45,0,0,1,1.93-1.47l5.08,23.69A13,13,0,0,1,246.32,153.1Z"/><g class="cls-12"><path class="cls-11" d="M251.16,153.77l-5.31-25a12.69,12.69,0,0,1,4.31-.87l5.3,24.91A13,13,0,0,1,251.16,153.77Z"/><path class="cls-11" d="M246.32,153.1l-4.62-21.73a14.45,14.45,0,0,1,1.93-1.47l5.08,23.69A13,13,0,0,1,246.32,153.1Z"/></g><path class="cls-1" d="M228.45,454.24s10.15-33.35-8.07-31.44c0,0-2.54-32.42-22.71-8.35,0,0-13.32-21.33-18.31-2.64,0,0-37.8-24-36.19-2.75,0,0-26.91-13.45-29.8-2.58s32.45,22.18,32.45,22.18-30.08-10.05-31-6.11S226.78,461.23,228.45,454.24Z"/><path class="cls-3" d="M228.45,454.24s10.15-33.35-8.07-31.44c0,0-2.54-32.42-22.71-8.35,0,0-13.32-21.33-18.31-2.64,0,0-37.8-24-36.19-2.75,0,0-26.91-13.45-29.8-2.58s32.45,22.18,32.45,22.18-30.08-10.05-31-6.11S226.78,461.23,228.45,454.24Z"/><path class="cls-1" d="M268.83,455.09s-11.85-38.75,9.39-36.53c0,0,2.94-37.67,26.36-9.72,0,0,15.48-24.77,21.29-3.06,0,0,44-27.85,42.06-3.2,0,0,31.27-15.61,34.62-3s-37.71,25.79-37.71,25.79,35-11.7,36.07-7.13S270.77,463.21,268.83,455.09Z"/><path class="cls-3" d="M268.83,455.09s-11.85-38.75,9.39-36.53c0,0,2.94-37.67,26.36-9.72,0,0,15.48-24.77,21.29-3.06,0,0,44-27.85,42.06-3.2,0,0,31.27-15.61,34.62-3s-37.71,25.79-37.71,25.79,35-11.7,36.07-7.13S270.77,463.21,268.83,455.09Z"/><path class="cls-1" d="M236.81,485.06s-9.44-80.77,34.84-54.93c0,0,9.26-34.87,32.66-14.64,0,0,36.9-14.55,23,27.82,0,0,35.41-25.29,34.14,13.91,0,0,43-20.3,38.79,8,0,0,27-4.21,25.72,8s-71.68,8-71.68,8,30,3,29.1,7c-.44,2.1-40.2-.59-78.19-2.16C270.47,484.62,237.22,492.3,236.81,485.06Z"/><path class="cls-13" d="M236.81,485.06s-9.44-80.77,34.84-54.93c0,0,9.26-34.87,32.66-14.64,0,0,36.9-14.55,23,27.82,0,0,35.41-25.29,34.14,13.91,0,0,43-20.3,38.79,8,0,0,27-4.21,25.72,8s-71.68,8-71.68,8,30,3,29.1,7c-.44,2.1-40.2-.59-78.19-2.16C270.47,484.62,237.22,492.3,236.81,485.06Z"/><path class="cls-1" d="M262.29,482.35s2.78-47.38-20.74-39c0,0-13.74-42.08-32.71-3.81,0,0-24.43-23.94-25.06,2.39,0,0-57.7-19.63-48.78,7.95,0,0-39.92-9.19-40.26,6.11s50.05,19,50.05,19-43-3.67-43,1.84S262.33,492.15,262.29,482.35Z"/><path class="cls-13" d="M262.29,482.35s2.78-47.38-20.74-39c0,0-13.74-42.08-32.71-3.81,0,0-24.43-23.94-25.06,2.39,0,0-57.7-19.63-48.78,7.95,0,0-39.92-9.19-40.26,6.11s50.05,19,50.05,19-43-3.67-43,1.84S262.33,492.15,262.29,482.35Z"/><path class="cls-1" d="M292.09,490s44.34,3.55,42.91-2.85-34.13-7.81-34.13-7.81,43.29-18.5,28.52-28-42.7,9.48-42.7,9.48,33.95-26.18,13.24-32.66-38.75,19.43-38.75,19.43,6.53-20.56-5.79-20.48-12.25,20-12.25,20S220,422,208.53,434.84s11.55,28,11.55,28S186.23,444,179.84,459.1s30.81,22.15,30.81,22.15-37.23-2.49-38.43,3.25S263.43,486.28,292.09,490Z"/><path class="cls-14" d="M292.09,490s44.34,3.55,42.91-2.85-34.13-7.81-34.13-7.81,43.29-18.5,28.52-28-42.7,9.48-42.7,9.48,33.95-26.18,13.24-32.66-38.75,19.43-38.75,19.43,6.53-20.56-5.79-20.48-12.25,20-12.25,20S220,422,208.53,434.84s11.55,28,11.55,28S186.23,444,179.84,459.1s30.81,22.15,30.81,22.15-37.23-2.49-38.43,3.25S263.43,486.28,292.09,490Z"/></g></svg>