<svg width="62" height="62" viewBox="0 0 62 62" fill="none" xmlns="http://www.w3.org/2000/svg">
<path d="M0.0415039 57.25H61.2915V61.625H0.0415039V57.25ZM54.729 20.0625C55.3092 20.0625 55.8656 19.832 56.2758 19.4218C56.686 19.0116 56.9165 18.4552 56.9165 17.875V11.3125C56.9163 10.8629 56.7776 10.4244 56.5193 10.0564C56.261 9.6885 55.8955 9.4091 55.4728 9.25625L31.4103 0.50625C30.9296 0.332491 30.4034 0.332491 29.9228 0.50625L5.86025 9.25625C5.43747 9.4091 5.07206 9.6885 4.81372 10.0564C4.55539 10.4244 4.4167 10.8629 4.4165 11.3125V17.875C4.4165 18.4552 4.64697 19.0116 5.05721 19.4218C5.46744 19.832 6.02384 20.0625 6.604 20.0625H8.7915V48.5H4.4165V52.875H56.9165V48.5H52.5415V20.0625H54.729ZM8.7915 12.8438L30.6665 4.88125L52.5415 12.8438V15.6875H8.7915V12.8438ZM35.0415 48.5H26.2915V20.0625H35.0415V48.5ZM13.1665 20.0625H21.9165V48.5H13.1665V20.0625ZM48.1665 48.5H39.4165V20.0625H48.1665V48.5Z" fill="#043873"/>
</svg>
