<svg width="53" height="59" viewBox="0 0 53 59" fill="none" xmlns="http://www.w3.org/2000/svg">
<path fill-rule="evenodd" clip-rule="evenodd" d="M51.9322 15.47L51.5297 14.7512C51.0105 13.8821 50.2782 13.1597 49.4022 12.6525L30.111 1.52625C29.2376 1.01953 28.246 0.751782 27.236 0.75H26.4022C25.3922 0.751782 24.4007 1.01953 23.5272 1.52625L4.23599 12.6812C3.36478 13.1851 2.64112 13.9088 2.13725 14.78L1.73475 15.4987C1.22803 16.3723 0.960279 17.3639 0.958496 18.3737V40.655C0.960279 41.665 1.22803 42.6566 1.73475 43.53L2.13725 44.2487C2.65414 45.1098 3.3749 45.8306 4.23599 46.3475L23.556 57.4737C24.4251 57.9909 25.4196 58.2595 26.431 58.25H27.236C28.246 58.2483 29.2376 57.9806 30.111 57.4737L49.4022 46.3187C50.282 45.8263 51.0085 45.0997 51.501 44.22L51.9322 43.5012C52.4328 42.6252 52.7001 41.6354 52.7085 40.6262V18.345C52.7067 17.3351 52.4391 16.3435 51.9322 15.47ZM26.4022 6.5H27.236L44.0835 16.2175L26.8335 26.165L9.58349 16.2175L26.4022 6.5ZM29.7085 51.0625L46.5272 41.345L46.9585 40.6262V21.1912L29.7085 31.1675V51.0625Z" fill="#043873"/>
</svg>
