<svg width="56" height="57" viewBox="0 0 56 57" fill="none" xmlns="http://www.w3.org/2000/svg">
<path d="M14.9998 29.2708V16.875C14.9998 15.6597 15.4257 14.6272 16.2773 13.7775C17.129 12.9278 18.1615 12.5019 19.3748 12.5C20.5882 12.498 21.6216 12.9239 22.4753 13.7775C23.3289 14.6311 23.7537 15.6636 23.7498 16.875V29.2708C23.7498 30.4861 23.325 31.5196 22.4753 32.3712C21.6255 33.2229 20.5921 33.6478 19.3748 33.6458C18.1576 33.6439 17.1251 33.219 16.2773 32.3712C15.4296 31.5235 15.0037 30.49 14.9998 29.2708ZM29.5832 28.6146V5.20832C29.5832 3.99304 30.009 2.96054 30.8607 2.11082C31.7123 1.2611 32.7448 0.835264 33.9582 0.83332C35.1715 0.831375 36.205 1.25721 37.0586 2.11082C37.9122 2.96443 38.3371 3.99693 38.3332 5.20832V28.6146C38.3332 30.0729 37.884 31.1667 36.9857 31.8958C36.0873 32.625 35.0782 32.9896 33.9582 32.9896C32.8382 32.9896 31.83 32.625 30.9336 31.8958C30.0372 31.1667 29.5871 30.0729 29.5832 28.6146ZM0.416504 38.6771V28.5417C0.416504 27.3264 0.842337 26.2939 1.694 25.4442C2.54567 24.5944 3.57817 24.1686 4.7915 24.1667C6.00484 24.1647 7.03831 24.5905 7.89192 25.4442C8.74553 26.2978 9.17039 27.3303 9.1665 28.5417V38.6771C9.1665 40.1354 8.71734 41.2292 7.819 41.9583C6.92067 42.6875 5.9115 43.0521 4.7915 43.0521C3.6715 43.0521 2.66331 42.6875 1.76692 41.9583C0.870532 41.2292 0.420393 40.1354 0.416504 38.6771ZM7.4165 56.3958C6.15262 56.3958 5.26498 55.8008 4.75359 54.6108C4.2422 53.4208 4.44928 52.363 5.37484 51.4375L17.3332 39.4792C17.8679 38.9444 18.5125 38.6528 19.2669 38.6042C20.0214 38.5555 20.6893 38.7986 21.2707 39.3333L29.5832 46.4792L45.9165 30.1458H44.1665C43.3401 30.1458 42.6479 29.8658 42.0898 29.3058C41.5318 28.7458 41.2518 28.0536 41.2498 27.2292C41.2479 26.4047 41.5279 25.7125 42.0898 25.1525C42.6518 24.5925 43.344 24.3125 44.1665 24.3125H52.9165C53.7429 24.3125 54.4361 24.5925 54.9961 25.1525C55.5561 25.7125 55.8351 26.4047 55.8332 27.2292V35.9792C55.8332 36.8055 55.5532 37.4987 54.9932 38.0587C54.4332 38.6187 53.7409 38.8978 52.9165 38.8958C52.0921 38.8939 51.3998 38.6139 50.8398 38.0558C50.2798 37.4978 49.9998 36.8055 49.9998 35.9792V34.2292L31.7707 52.4583C31.2359 52.993 30.5914 53.2847 29.8369 53.3333C29.0825 53.3819 28.4146 53.1389 27.8332 52.6042L19.5207 45.4583L9.45817 55.5208C9.21511 55.7639 8.91178 55.971 8.54817 56.1421C8.18456 56.3132 7.80734 56.3978 7.4165 56.3958Z" fill="#043873"/>
</svg>
