<svg width="67" height="59" viewBox="0 0 67 59" fill="none" xmlns="http://www.w3.org/2000/svg">
<path d="M59.6516 7.63792C58.1406 6.12622 56.3466 4.92704 54.372 4.10887C52.3975 3.29071 50.2811 2.8696 48.1437 2.8696C46.0063 2.8696 43.8899 3.29071 41.9154 4.10887C39.9408 4.92704 38.1468 6.12622 36.6358 7.63792L33.4999 10.7737L30.3641 7.63792C27.312 4.58583 23.1725 2.87118 18.8562 2.87118C14.5399 2.87118 10.4004 4.58583 7.34828 7.63792C4.29619 10.69 2.58154 14.8295 2.58154 19.1458C2.58154 23.4621 4.29619 27.6017 7.34828 30.6538L33.4999 56.8054L59.6516 30.6538C61.1633 29.1428 62.3625 27.3487 63.1807 25.3742C63.9988 23.3996 64.4199 21.2832 64.4199 19.1458C64.4199 17.0085 63.9988 14.8921 63.1807 12.9175C62.3625 10.9429 61.1633 9.1489 59.6516 7.63792Z" stroke="#043873" stroke-width="4" stroke-linecap="round" stroke-linejoin="round"/>
</svg>
