<svg width="65" height="42" viewBox="0 0 65 42" fill="none" xmlns="http://www.w3.org/2000/svg">
<path d="M31.6042 32.6667H33.7188V30.3333C35.0799 30.1389 36.2349 29.5799 37.1838 28.6562C38.1326 27.7326 38.6061 26.5417 38.6042 25.0833C38.6042 23.8194 38.1181 22.7617 37.1458 21.91C36.1736 21.0583 35.0556 20.3661 33.7917 19.8333V14.4375C34.2778 14.5833 34.6793 14.8264 34.9963 15.1667C35.3132 15.5069 35.5436 15.9201 35.6875 16.4062L38.3125 15.3125C37.9722 14.2917 37.3889 13.4779 36.5625 12.8712C35.7361 12.2646 34.8125 11.8631 33.7917 11.6667V9.33333H31.6042V11.5937C30.2431 11.7396 29.089 12.2383 28.1421 13.09C27.1951 13.9417 26.7207 15.0714 26.7188 16.4792C26.7188 17.7917 27.2175 18.8854 28.215 19.7604C29.2125 20.6354 30.3422 21.3403 31.6042 21.875V27.6354C30.8264 27.3924 30.1701 26.9792 29.6354 26.3958C29.1007 25.8125 28.7361 25.1319 28.5417 24.3542L25.9896 25.4479C26.3785 26.809 27.059 27.9271 28.0313 28.8021C29.0035 29.6771 30.1944 30.2118 31.6042 30.4062V32.6667ZM33.7917 27.5625V22.75C34.3264 22.993 34.8008 23.2847 35.215 23.625C35.6292 23.9653 35.8353 24.4757 35.8333 25.1562C35.8333 25.934 35.6389 26.4814 35.25 26.7983C34.8611 27.1153 34.375 27.37 33.7917 27.5625ZM31.6042 18.8854C31.0694 18.6424 30.5833 18.3507 30.1458 18.0104C29.7083 17.6701 29.4896 17.1597 29.4896 16.4792C29.4896 15.7986 29.7083 15.2999 30.1458 14.9829C30.5833 14.666 31.0694 14.4599 31.6042 14.3646V18.8854ZM20.6667 41.4167C14.9792 41.4167 10.155 39.4362 6.19417 35.4754C2.23334 31.5146 0.251946 26.6894 0.250001 21C0.248057 15.3105 2.22945 10.4864 6.19417 6.52749C10.1589 2.56861 14.9831 0.587217 20.6667 0.583328H44C49.6875 0.583328 54.5126 2.56472 58.4754 6.52749C62.4382 10.4903 64.4186 15.3144 64.4167 21C64.4147 26.6855 62.4343 31.5107 58.4754 35.4754C54.5165 39.4401 49.6914 41.4205 44 41.4167H20.6667ZM20.6667 35.5833H44C48.0347 35.5833 51.4744 34.161 54.3192 31.3162C57.1639 28.4715 58.5853 25.0328 58.5833 21C58.5814 16.9672 57.159 13.5285 54.3163 10.6837C51.4735 7.83902 48.0347 6.41666 44 6.41666H20.6667C16.6319 6.41666 13.1932 7.83902 10.3504 10.6837C7.50764 13.5285 6.08528 16.9672 6.08333 21C6.08139 25.0328 7.50375 28.4725 10.3504 31.3192C13.1971 34.1658 16.6358 35.5872 20.6667 35.5833Z" fill="#043873"/>
</svg>
