<svg width="70" height="70" viewBox="0 0 70 70" fill="none" xmlns="http://www.w3.org/2000/svg">
<path d="M0.5 32C0.5 14.603 14.603 0.5 32 0.5H38C55.397 0.5 69.5 14.603 69.5 32V38C69.5 55.397 55.397 69.5 38 69.5H32C14.603 69.5 0.5 55.397 0.5 38V32Z" fill="#043873"/>
<path d="M0.5 32C0.5 14.603 14.603 0.5 32 0.5H38C55.397 0.5 69.5 14.603 69.5 32V38C69.5 55.397 55.397 69.5 38 69.5H32C14.603 69.5 0.5 55.397 0.5 38V32Z" stroke="#043873" stroke-linecap="round"/>
<path d="M34.9998 26.6667L37.5748 31.8833L43.3332 32.725L39.1665 36.7833L40.1498 42.5167L34.9998 39.8083L29.8498 42.5167L30.8332 36.7833L26.6665 32.725L32.4248 31.8833L34.9998 26.6667Z" stroke="#F5F5F5" stroke-width="2" stroke-linecap="round" stroke-linejoin="round"/>
</svg>
