<svg xmlns:xlink="http://www.w3.org/1999/xlink" xmlns="http://www.w3.org/2000/svg" id="Layer_2" data-name="Layer 2" viewBox="0 0 387.52 174.59" width="387.52"  height="174.59" >
  <defs>
    <style>
      .cls-1 {
        fill: #22c55e;
      }

      .cls-2 {
        fill: #fff;
      }

      .cls-3 {
        fill: #e2e8f0;
      }

      .cls-4 {
        fill: #3c81f6;
      }

      .cls-5 {
        fill: #16a34a;
      }

      .cls-6 {
        fill: #cbd5e1;
      }
    </style>
  </defs>
  <g id="Layer_1-2" data-name="Layer 1">
    <g>
      <rect class="cls-3" x="69.04" y="24.52" width="62.32" height="14.15" rx="1.8" ry="1.8"/>
      <path class="cls-5" d="M123.02,30.6h3.32l-1.66,2.74-1.66-2.74Z"/>
      <path class="cls-5" d="M79.16,30.35h-.8c-.03-.17-.09-.32-.17-.45s-.19-.24-.31-.33c-.12-.09-.26-.16-.41-.21-.15-.05-.31-.07-.48-.07-.3,0-.58,.08-.81,.23-.24,.15-.43,.38-.57,.67s-.21,.66-.21,1.08,.07,.79,.21,1.09,.33,.52,.57,.67c.24,.15,.51,.23,.81,.23,.17,0,.32-.02,.47-.07s.29-.11,.41-.2c.12-.09,.22-.2,.31-.33,.08-.13,.14-.28,.18-.45h.8c-.04,.26-.13,.5-.25,.72-.12,.22-.28,.4-.47,.56-.19,.16-.41,.28-.65,.36-.25,.09-.51,.13-.8,.13-.46,0-.86-.11-1.22-.33-.36-.22-.64-.53-.84-.93s-.31-.89-.31-1.45,.1-1.05,.31-1.45c.21-.4,.49-.71,.84-.93s.76-.33,1.22-.33c.28,0,.54,.04,.78,.12,.24,.08,.46,.2,.65,.35,.19,.15,.35,.34,.48,.56s.21,.47,.26,.75Z"/>
      <path class="cls-5" d="M82.01,33.99c-.37,0-.69-.08-.97-.25-.28-.17-.49-.41-.64-.71-.15-.31-.23-.66-.23-1.07s.08-.77,.23-1.08c.15-.31,.37-.55,.64-.71,.28-.17,.6-.25,.97-.25s.69,.08,.97,.25c.28,.17,.49,.41,.64,.71,.15,.31,.23,.67,.23,1.08s-.08,.76-.23,1.07c-.15,.31-.37,.54-.64,.71-.28,.17-.6,.25-.97,.25Zm0-.65c.24,0,.44-.06,.6-.19,.16-.13,.27-.3,.35-.51,.08-.21,.11-.44,.11-.7s-.04-.48-.11-.7c-.08-.21-.19-.38-.35-.51-.16-.13-.36-.19-.6-.19s-.44,.06-.6,.19c-.16,.13-.28,.3-.35,.51-.08,.21-.11,.44-.11,.7s.04,.49,.11,.7c.08,.21,.19,.38,.35,.51,.16,.13,.36,.19,.6,.19Z"/>
      <path class="cls-5" d="M84.99,33.91v-3.95h.74v.64h.05c.08-.22,.22-.39,.4-.51s.41-.18,.67-.18,.49,.06,.67,.19c.18,.12,.31,.29,.4,.51h.04c.09-.21,.24-.38,.45-.5,.21-.13,.45-.19,.74-.19,.36,0,.65,.11,.88,.34,.23,.22,.34,.56,.34,1.02v2.65h-.77v-2.58c0-.27-.07-.46-.22-.58s-.32-.18-.52-.18c-.25,0-.45,.08-.58,.23-.14,.15-.21,.35-.21,.59v2.52h-.77v-2.63c0-.21-.07-.39-.2-.52-.13-.13-.31-.2-.52-.2-.15,0-.28,.04-.4,.11-.12,.08-.22,.18-.29,.32-.08,.14-.11,.29-.11,.47v2.44h-.77Z"/>
      <path class="cls-5" d="M91.68,35.39v-5.43h.75v.64h.06c.04-.08,.11-.18,.19-.29,.08-.11,.2-.2,.35-.28,.15-.08,.35-.12,.59-.12,.32,0,.6,.08,.85,.24,.25,.16,.45,.39,.59,.7,.14,.3,.21,.67,.21,1.1s-.07,.79-.21,1.1-.34,.54-.59,.7c-.25,.16-.53,.25-.85,.25-.24,0-.44-.04-.59-.12s-.27-.17-.36-.28-.15-.2-.2-.29h-.05v2.1h-.77Zm.75-3.46c0,.28,.04,.52,.12,.73,.08,.21,.2,.37,.35,.49,.15,.12,.34,.18,.56,.18s.42-.06,.58-.18,.27-.29,.35-.5c.08-.21,.12-.45,.12-.71s-.04-.49-.12-.7-.19-.37-.35-.49-.35-.18-.58-.18-.41,.06-.56,.17-.27,.28-.35,.48c-.08,.21-.12,.45-.12,.72Z"/>
      <path class="cls-5" d="M97.59,34c-.25,0-.48-.05-.68-.14-.2-.09-.36-.23-.48-.41-.12-.18-.18-.4-.18-.66,0-.22,.04-.41,.13-.55,.08-.14,.2-.26,.35-.34s.31-.15,.49-.19c.18-.04,.36-.08,.55-.1,.24-.03,.43-.05,.58-.07s.25-.05,.32-.09c.07-.04,.1-.11,.1-.2v-.02c0-.22-.06-.4-.19-.52s-.31-.19-.56-.19-.46,.06-.61,.17c-.15,.11-.25,.24-.31,.38l-.72-.16c.09-.24,.21-.43,.38-.58,.17-.15,.36-.26,.57-.32,.22-.07,.44-.1,.68-.1,.16,0,.33,.02,.5,.06,.18,.04,.34,.1,.5,.2s.28,.24,.38,.42,.15,.42,.15,.7v2.62h-.75v-.54h-.03c-.05,.1-.12,.2-.22,.29-.1,.1-.23,.18-.38,.24s-.34,.1-.56,.1Zm.17-.62c.21,0,.39-.04,.55-.13,.15-.08,.27-.19,.35-.33s.12-.28,.12-.44v-.51s-.08,.05-.16,.08c-.08,.02-.17,.04-.27,.06-.1,.02-.2,.03-.29,.04-.09,.01-.17,.02-.24,.03-.15,.02-.29,.05-.41,.1-.12,.04-.22,.11-.29,.19-.07,.08-.11,.19-.11,.33,0,.19,.07,.33,.21,.43,.14,.1,.32,.15,.54,.15Z"/>
      <path class="cls-5" d="M101.62,31.56v2.35h-.77v-3.95h.74v.64h.05c.09-.21,.23-.38,.43-.5,.19-.13,.44-.19,.74-.19,.27,0,.51,.06,.71,.17s.36,.28,.47,.5c.11,.22,.17,.49,.17,.82v2.51h-.77v-2.42c0-.29-.07-.51-.22-.67-.15-.16-.35-.24-.61-.24-.18,0-.34,.04-.47,.12-.14,.08-.25,.19-.33,.34-.08,.15-.12,.33-.12,.54Z"/>
      <path class="cls-5" d="M105.81,35.38c-.11,0-.22,0-.31-.03-.09-.02-.17-.04-.21-.06l.19-.63c.21,.06,.39,.06,.53,.01,.14-.05,.26-.2,.36-.46l.09-.26-1.45-4h.82l1,3.07h.04l1-3.07h.83s-1.63,4.48-1.63,4.48c-.08,.2-.17,.38-.29,.52s-.26,.25-.42,.32c-.16,.07-.35,.11-.56,.11Z"/>
      <rect class="cls-3" x="259.55" y="0" width="62.04" height="14.08" rx="1.8" ry="1.8"/>
      <path class="cls-5" d="M313.3,6.06h3.32l-1.66,2.74-1.66-2.74Z"/>
      <path class="cls-5" d="M265.28,9.34V4.08h3.27v.68h-2.47v1.6h2.24v.68h-2.24v2.3h-.79Z"/>
      <path class="cls-5" d="M272,7.7v-2.31h.77v3.95h-.76v-.68h-.04c-.09,.21-.24,.39-.44,.53-.2,.14-.45,.21-.74,.21-.25,0-.48-.06-.67-.17s-.35-.28-.46-.5-.17-.49-.17-.82v-2.51h.77v2.42c0,.27,.07,.48,.22,.64,.15,.16,.34,.24,.58,.24,.14,0,.29-.04,.43-.11,.14-.07,.26-.18,.36-.33,.1-.15,.14-.33,.14-.56Z"/>
      <path class="cls-5" d="M274.86,7v2.35h-.77v-3.95h.74v.64h.05c.09-.21,.23-.38,.43-.5,.19-.13,.44-.19,.74-.19,.27,0,.5,.06,.71,.17,.2,.11,.36,.28,.47,.5s.17,.49,.17,.82v2.51h-.77v-2.42c0-.29-.07-.51-.22-.67s-.35-.24-.61-.24c-.18,0-.34,.04-.47,.12-.14,.08-.25,.19-.33,.34-.08,.15-.12,.33-.12,.54Z"/>
      <path class="cls-5" d="M280.19,9.42c-.32,0-.6-.08-.85-.25-.25-.16-.45-.4-.59-.7s-.21-.67-.21-1.1,.07-.79,.21-1.1c.14-.3,.34-.54,.59-.7,.25-.16,.53-.24,.85-.24,.25,0,.44,.04,.59,.12,.15,.08,.27,.18,.35,.28,.08,.11,.15,.2,.19,.29h.05v-1.96h.77v5.27h-.75v-.61h-.06c-.05,.08-.11,.18-.2,.29-.09,.11-.21,.2-.36,.28-.15,.08-.35,.12-.59,.12Zm.17-.66c.22,0,.41-.06,.56-.18,.15-.12,.27-.28,.35-.49,.08-.21,.12-.45,.12-.73s-.04-.51-.12-.72c-.08-.21-.19-.37-.35-.48s-.34-.17-.57-.17-.42,.06-.58,.18-.27,.28-.35,.49-.12,.44-.12,.7,.04,.5,.12,.71c.08,.21,.2,.38,.35,.5s.35,.18,.57,.18Z"/>
      <path class="cls-5" d="M283.92,4.78c-.13,0-.25-.04-.34-.13-.09-.09-.14-.2-.14-.32s.05-.24,.14-.33c.1-.09,.21-.14,.34-.14s.25,.04,.34,.14c.09,.09,.14,.2,.14,.33s-.05,.23-.14,.32c-.1,.09-.21,.13-.34,.13Zm-.39,4.56v-3.95h.77v3.95h-.77Z"/>
      <path class="cls-5" d="M286.39,7v2.35h-.77v-3.95h.74v.64h.05c.09-.21,.23-.38,.43-.5,.19-.13,.44-.19,.74-.19,.27,0,.5,.06,.71,.17,.2,.11,.36,.28,.47,.5s.17,.49,.17,.82v2.51h-.77v-2.42c0-.29-.07-.51-.22-.67s-.35-.24-.61-.24c-.18,0-.34,.04-.47,.12-.14,.08-.25,.19-.33,.34-.08,.15-.12,.33-.12,.54Z"/>
      <path class="cls-5" d="M291.9,10.9c-.31,0-.58-.04-.81-.12-.23-.08-.41-.19-.55-.33-.14-.13-.25-.28-.32-.44l.66-.27c.05,.07,.11,.15,.19,.23s.18,.16,.32,.22,.31,.09,.52,.09c.29,0,.53-.07,.72-.21s.29-.36,.29-.67v-.78h-.05c-.05,.08-.11,.18-.2,.28-.09,.1-.21,.19-.36,.27s-.35,.11-.59,.11c-.31,0-.59-.07-.84-.22-.25-.15-.45-.36-.59-.65-.14-.29-.22-.64-.22-1.06s.07-.78,.21-1.08c.14-.3,.34-.53,.59-.69,.25-.16,.53-.24,.85-.24,.25,0,.44,.04,.59,.12,.15,.08,.27,.18,.35,.28,.08,.11,.15,.2,.2,.29h.06v-.64h.75v4.04c0,.34-.08,.61-.24,.83-.16,.22-.37,.38-.64,.48-.27,.1-.57,.16-.91,.16Zm0-2.25c.22,0,.41-.05,.56-.16s.27-.25,.35-.45c.08-.19,.12-.43,.12-.7s-.04-.5-.12-.7c-.08-.2-.19-.36-.35-.47-.15-.11-.34-.17-.57-.17s-.42,.06-.58,.18-.27,.28-.35,.48-.12,.43-.12,.68,.04,.49,.12,.68c.08,.2,.2,.35,.35,.46,.16,.11,.35,.16,.57,.16Z"/>
      <path class="cls-5" d="M297.96,6.36l-.7,.12c-.03-.09-.08-.17-.14-.25s-.15-.15-.25-.2c-.11-.05-.24-.08-.4-.08-.22,0-.4,.05-.54,.15-.15,.1-.22,.22-.22,.37,0,.13,.05,.24,.15,.32s.26,.15,.47,.2l.63,.14c.36,.08,.63,.21,.81,.39,.18,.17,.27,.4,.27,.68,0,.24-.07,.45-.21,.63-.14,.18-.33,.33-.57,.43-.24,.1-.52,.16-.84,.16-.44,0-.8-.09-1.08-.28s-.45-.46-.51-.81l.74-.11c.05,.19,.14,.34,.29,.44,.14,.1,.33,.15,.56,.15,.25,0,.45-.05,.6-.16,.15-.11,.23-.23,.23-.39,0-.12-.05-.23-.14-.31s-.23-.15-.42-.19l-.67-.15c-.37-.08-.64-.22-.82-.4-.18-.18-.26-.42-.26-.7,0-.23,.06-.44,.2-.61,.13-.17,.31-.31,.54-.41s.49-.15,.79-.15c.43,0,.76,.09,1.01,.28,.25,.18,.41,.43,.49,.74Z"/>
      <rect class="cls-3" x="0" y="45.16" width="62.04" height="14.08" rx="1.8" ry="1.8"/>
      <path class="cls-5" d="M54.05,54.02v-3.32l2.74,1.66-2.74,1.66Z"/>
      <path class="cls-5" d="M7.43,54.5h-1.71v-5.27h1.76c.52,0,.96,.1,1.33,.31s.65,.51,.85,.9,.3,.86,.3,1.41-.1,1.02-.3,1.41c-.2,.39-.49,.7-.87,.91-.38,.21-.83,.32-1.37,.32Zm-.91-.69h.87c.4,0,.73-.08,1-.23,.27-.15,.46-.37,.6-.66s.2-.64,.2-1.06-.07-.76-.2-1.05c-.13-.29-.33-.51-.58-.66-.26-.15-.58-.22-.96-.22h-.92v3.88Z"/>
      <path class="cls-5" d="M12.88,54.58c-.39,0-.72-.08-1-.25-.28-.17-.5-.4-.65-.71-.15-.3-.23-.66-.23-1.07s.08-.76,.23-1.07c.15-.31,.37-.55,.64-.72,.27-.17,.59-.26,.96-.26,.22,0,.44,.04,.65,.11s.4,.19,.56,.35c.17,.16,.3,.36,.39,.61,.1,.25,.14,.56,.14,.91v.27h-3.14v-.58h2.39c0-.2-.04-.38-.12-.54-.08-.16-.2-.28-.35-.37-.15-.09-.32-.14-.52-.14-.22,0-.4,.05-.56,.16-.16,.11-.28,.24-.37,.41s-.13,.35-.13,.55v.45c0,.26,.05,.49,.14,.67,.09,.19,.22,.33,.39,.42,.17,.1,.36,.15,.59,.15,.15,0,.28-.02,.4-.06,.12-.04,.22-.1,.31-.19,.09-.08,.15-.19,.2-.31l.73,.13c-.06,.21-.16,.4-.31,.56-.15,.16-.34,.28-.56,.37s-.48,.13-.77,.13Z"/>
      <path class="cls-5" d="M16.87,54.59c-.25,0-.48-.05-.68-.14-.2-.09-.36-.23-.48-.41-.12-.18-.18-.4-.18-.66,0-.22,.04-.41,.13-.55,.08-.14,.2-.26,.35-.34s.31-.15,.49-.19c.18-.04,.36-.08,.55-.1,.24-.03,.43-.05,.58-.07s.25-.05,.32-.09c.07-.04,.1-.11,.1-.2v-.02c0-.22-.06-.4-.19-.52s-.31-.19-.56-.19-.46,.06-.61,.17c-.15,.11-.25,.24-.31,.38l-.72-.16c.09-.24,.21-.43,.38-.58,.17-.15,.36-.26,.57-.32,.22-.07,.44-.1,.68-.1,.16,0,.33,.02,.5,.06,.18,.04,.34,.1,.5,.2s.28,.24,.38,.42,.15,.42,.15,.7v2.62h-.75v-.54h-.03c-.05,.1-.12,.2-.22,.29-.1,.1-.23,.18-.38,.24s-.34,.1-.56,.1Zm.17-.62c.21,0,.39-.04,.55-.13,.15-.08,.27-.19,.35-.33s.12-.28,.12-.44v-.51s-.08,.05-.16,.08c-.08,.02-.17,.04-.27,.06-.1,.02-.2,.03-.29,.04-.09,.01-.17,.02-.24,.03-.15,.02-.29,.05-.41,.1-.12,.04-.22,.11-.29,.19-.07,.08-.11,.19-.11,.33,0,.19,.07,.33,.21,.43,.14,.1,.32,.15,.54,.15Z"/>
      <path class="cls-5" d="M20.91,49.23v5.27h-.77v-5.27h.77Z"/>
      <path class="cls-5" d="M25.19,51.52l-.7,.12c-.03-.09-.08-.17-.14-.25s-.15-.15-.25-.2c-.11-.05-.24-.08-.4-.08-.22,0-.4,.05-.55,.15-.15,.1-.22,.22-.22,.37,0,.13,.05,.24,.15,.32,.1,.08,.25,.15,.47,.2l.63,.14c.36,.08,.63,.21,.81,.39,.18,.17,.27,.4,.27,.68,0,.24-.07,.45-.21,.63-.14,.18-.33,.33-.57,.43-.24,.1-.52,.16-.84,.16-.44,0-.8-.09-1.08-.28s-.45-.46-.51-.81l.74-.11c.05,.19,.14,.34,.29,.44,.14,.1,.33,.15,.56,.15,.25,0,.45-.05,.6-.16,.15-.11,.23-.23,.23-.39,0-.12-.05-.23-.14-.31s-.23-.15-.42-.19l-.67-.15c-.37-.08-.64-.22-.82-.4-.18-.18-.26-.42-.26-.7,0-.23,.07-.44,.2-.61,.13-.17,.31-.31,.54-.41s.49-.15,.79-.15c.43,0,.76,.09,1.01,.28,.25,.18,.41,.43,.49,.74Z"/>
      <rect class="cls-3" x="197.19" y="92.52" width="62.04" height="14.08" rx="1.8" ry="1.8"/>
      <path class="cls-5" d="M250.94,98.57h3.3l-1.65,2.73-1.65-2.73Z"/>
      <path class="cls-5" d="M202.92,101.86v-5.24h1.87c.41,0,.74,.07,1.01,.21,.27,.14,.47,.33,.6,.58,.13,.25,.2,.53,.2,.85s-.07,.6-.2,.85-.33,.43-.6,.57c-.27,.13-.61,.2-1.01,.2h-1.42v-.68h1.34c.26,0,.46-.04,.63-.11,.16-.07,.28-.18,.35-.32,.08-.14,.11-.31,.11-.5s-.04-.37-.11-.51c-.08-.15-.19-.26-.36-.33-.16-.08-.37-.12-.63-.12h-.99v4.56h-.79Zm2.59-2.37l1.29,2.37h-.9l-1.27-2.37h.88Z"/>
      <path class="cls-5" d="M209.44,101.94c-.39,0-.72-.08-1-.25-.28-.17-.49-.4-.64-.7-.15-.3-.23-.66-.23-1.07s.08-.76,.23-1.07c.15-.31,.36-.55,.63-.72,.27-.17,.59-.26,.96-.26,.22,0,.44,.04,.64,.11s.39,.19,.56,.35c.17,.16,.3,.36,.39,.61s.14,.55,.14,.91v.27h-3.12v-.57h2.38c0-.2-.04-.38-.12-.54s-.2-.28-.34-.37c-.15-.09-.32-.13-.52-.13-.21,0-.4,.05-.56,.16-.16,.1-.28,.24-.37,.41s-.13,.35-.13,.55v.45c0,.26,.05,.49,.14,.67,.09,.18,.22,.32,.39,.42,.17,.1,.36,.14,.59,.14,.14,0,.28-.02,.4-.06,.12-.04,.22-.1,.31-.19,.09-.08,.15-.19,.2-.31l.72,.13c-.06,.21-.16,.4-.31,.56-.15,.16-.34,.28-.56,.37-.22,.09-.48,.13-.77,.13Z"/>
      <path class="cls-5" d="M215.51,97.93l-1.42,3.93h-.82l-1.43-3.93h.82l1,3.02h.04l.99-3.02h.82Z"/>
      <path class="cls-5" d="M218.08,101.94c-.39,0-.72-.08-1-.25-.28-.17-.49-.4-.64-.7-.15-.3-.23-.66-.23-1.07s.08-.76,.23-1.07c.15-.31,.36-.55,.63-.72,.27-.17,.59-.26,.96-.26,.22,0,.44,.04,.64,.11s.39,.19,.56,.35c.17,.16,.3,.36,.39,.61s.14,.55,.14,.91v.27h-3.12v-.57h2.38c0-.2-.04-.38-.12-.54s-.2-.28-.34-.37c-.15-.09-.32-.13-.52-.13-.21,0-.4,.05-.56,.16-.16,.1-.28,.24-.37,.41s-.13,.35-.13,.55v.45c0,.26,.05,.49,.14,.67,.09,.18,.22,.32,.39,.42,.17,.1,.36,.14,.59,.14,.14,0,.28-.02,.4-.06,.12-.04,.22-.1,.31-.19,.09-.08,.15-.19,.2-.31l.72,.13c-.06,.21-.16,.4-.31,.56-.15,.16-.34,.28-.56,.37-.22,.09-.48,.13-.77,.13Z"/>
      <path class="cls-5" d="M221.67,99.53v2.33h-.76v-3.93h.73v.64h.05c.09-.21,.23-.38,.43-.5s.44-.19,.73-.19c.27,0,.5,.06,.7,.17,.2,.11,.36,.28,.47,.5,.11,.22,.17,.49,.17,.82v2.5h-.76v-2.41c0-.29-.07-.51-.22-.67s-.35-.24-.61-.24c-.18,0-.33,.04-.47,.12s-.25,.19-.33,.34c-.08,.15-.12,.33-.12,.53Z"/>
      <path class="cls-5" d="M227.99,100.23v-2.3h.77v3.93h-.75v-.68h-.04c-.09,.21-.23,.38-.43,.52-.2,.14-.45,.21-.74,.21-.25,0-.48-.06-.67-.17-.19-.11-.35-.28-.46-.5-.11-.22-.17-.49-.17-.82v-2.5h.76v2.41c0,.27,.07,.48,.22,.64,.15,.16,.34,.24,.58,.24,.14,0,.29-.04,.43-.11,.14-.07,.26-.18,.36-.33,.09-.15,.14-.33,.14-.55Z"/>
      <path class="cls-5" d="M231.76,101.94c-.39,0-.72-.08-1-.25-.28-.17-.49-.4-.64-.7-.15-.3-.23-.66-.23-1.07s.08-.76,.23-1.07c.15-.31,.36-.55,.63-.72,.27-.17,.59-.26,.96-.26,.22,0,.44,.04,.64,.11s.39,.19,.56,.35c.17,.16,.3,.36,.39,.61s.14,.55,.14,.91v.27h-3.12v-.57h2.38c0-.2-.04-.38-.12-.54s-.2-.28-.34-.37c-.15-.09-.32-.13-.52-.13-.21,0-.4,.05-.56,.16-.16,.1-.28,.24-.37,.41s-.13,.35-.13,.55v.45c0,.26,.05,.49,.14,.67,.09,.18,.22,.32,.39,.42,.17,.1,.36,.14,.59,.14,.14,0,.28-.02,.4-.06,.12-.04,.22-.1,.31-.19,.09-.08,.15-.19,.2-.31l.72,.13c-.06,.21-.16,.4-.31,.56-.15,.16-.34,.28-.56,.37-.22,.09-.48,.13-.77,.13Z"/>
      <path class="cls-5" d="M237.53,98.89l-.69,.12c-.03-.09-.07-.17-.14-.25s-.15-.15-.25-.2c-.11-.05-.24-.08-.4-.08-.22,0-.4,.05-.54,.14-.15,.1-.22,.22-.22,.37,0,.13,.05,.24,.15,.32,.1,.08,.25,.15,.47,.2l.62,.14c.36,.08,.63,.21,.81,.39,.18,.17,.27,.4,.27,.68,0,.24-.07,.45-.2,.63-.13,.18-.32,.33-.57,.43-.24,.1-.52,.16-.84,.16-.44,0-.8-.09-1.08-.28-.28-.19-.45-.46-.51-.81l.74-.11c.05,.19,.14,.34,.28,.44s.33,.15,.56,.15c.25,0,.45-.05,.6-.16,.15-.1,.22-.23,.22-.38,0-.12-.05-.23-.14-.31s-.23-.15-.42-.19l-.67-.15c-.37-.08-.64-.22-.81-.4s-.26-.41-.26-.69c0-.23,.07-.44,.2-.61,.13-.17,.31-.31,.54-.41,.23-.1,.49-.15,.79-.15,.42,0,.76,.09,1,.28s.41,.43,.48,.74Z"/>
      <rect class="cls-3" x="325.48" y="113.21" width="62.04" height="14.08" rx="1.8" ry="1.8"/>
      <path class="cls-5" d="M379.52,121.83v-3.3l2.73,1.65-2.73,1.65Z"/>
      <path class="cls-5" d="M331.67,117.31l1.46,4.27h.06l1.46-4.27h.85l-1.89,5.24h-.91l-1.89-5.24h.86Z"/>
      <path class="cls-5" d="M337.23,122.64c-.25,0-.47-.05-.68-.14s-.36-.23-.48-.41c-.12-.18-.18-.4-.18-.65,0-.22,.04-.4,.13-.55s.2-.26,.35-.34c.14-.08,.31-.15,.49-.19,.18-.04,.36-.08,.55-.1,.24-.03,.43-.05,.57-.07,.15-.02,.25-.05,.32-.09s.1-.11,.1-.2v-.02c0-.22-.06-.4-.19-.52-.13-.12-.31-.18-.56-.18s-.46,.06-.61,.17-.25,.24-.31,.38l-.72-.16c.09-.24,.21-.43,.38-.58,.17-.15,.35-.25,.57-.32s.44-.1,.68-.1c.16,0,.32,.02,.5,.06,.18,.04,.34,.1,.5,.2,.15,.1,.28,.24,.38,.42,.1,.18,.15,.41,.15,.7v2.61h-.75v-.54h-.03c-.05,.1-.12,.2-.22,.29-.1,.1-.23,.18-.38,.24-.16,.06-.34,.09-.56,.09Zm.17-.61c.21,0,.39-.04,.54-.12,.15-.08,.27-.19,.35-.33s.12-.28,.12-.44v-.51s-.08,.05-.16,.08c-.08,.02-.17,.04-.26,.06-.1,.02-.2,.03-.29,.04-.09,.01-.17,.02-.24,.03-.15,.02-.28,.05-.41,.09-.12,.04-.22,.11-.29,.19-.07,.08-.11,.19-.11,.33,0,.19,.07,.33,.21,.43s.32,.14,.54,.14Z"/>
      <path class="cls-5" d="M341.24,117.31v5.24h-.76v-5.24h.76Z"/>
      <path class="cls-5" d="M345.05,120.92v-2.3h.77v3.93h-.75v-.68h-.04c-.09,.21-.23,.38-.43,.52-.2,.14-.45,.21-.74,.21-.25,0-.48-.06-.67-.17-.19-.11-.35-.28-.46-.5-.11-.22-.17-.49-.17-.82v-2.5h.76v2.41c0,.27,.07,.48,.22,.64,.15,.16,.34,.24,.58,.24,.14,0,.29-.04,.43-.11,.14-.07,.26-.18,.36-.33,.09-.15,.14-.33,.14-.55Z"/>
      <path class="cls-5" d="M348.97,118.62v.61h-2.15v-.61h2.15Zm-1.57-.94h.76v3.72c0,.15,.02,.26,.07,.33,.04,.07,.1,.12,.17,.15,.07,.03,.15,.04,.23,.04,.06,0,.12,0,.16-.01,.05,0,.08-.02,.11-.02l.14,.63s-.11,.03-.19,.05c-.08,.02-.18,.03-.31,.03-.2,0-.39-.03-.56-.11s-.31-.19-.42-.35-.16-.35-.16-.59v-3.88Z"/>
      <path class="cls-5" d="M351.25,122.64c-.25,0-.47-.05-.68-.14s-.36-.23-.48-.41c-.12-.18-.18-.4-.18-.65,0-.22,.04-.4,.13-.55s.2-.26,.35-.34c.14-.08,.31-.15,.49-.19,.18-.04,.36-.08,.55-.1,.24-.03,.43-.05,.57-.07,.15-.02,.25-.05,.32-.09s.1-.11,.1-.2v-.02c0-.22-.06-.4-.19-.52-.13-.12-.31-.18-.56-.18s-.46,.06-.61,.17-.25,.24-.31,.38l-.72-.16c.09-.24,.21-.43,.38-.58,.17-.15,.35-.25,.57-.32s.44-.1,.68-.1c.16,0,.32,.02,.5,.06,.18,.04,.34,.1,.5,.2,.15,.1,.28,.24,.38,.42,.1,.18,.15,.41,.15,.7v2.61h-.75v-.54h-.03c-.05,.1-.12,.2-.22,.29-.1,.1-.23,.18-.38,.24-.16,.06-.34,.09-.56,.09Zm.17-.61c.21,0,.39-.04,.54-.12,.15-.08,.27-.19,.35-.33s.12-.28,.12-.44v-.51s-.08,.05-.16,.08c-.08,.02-.17,.04-.26,.06-.1,.02-.2,.03-.29,.04-.09,.01-.17,.02-.24,.03-.15,.02-.28,.05-.41,.09-.12,.04-.22,.11-.29,.19-.07,.08-.11,.19-.11,.33,0,.19,.07,.33,.21,.43s.32,.14,.54,.14Z"/>
      <path class="cls-5" d="M356.33,118.62v.61h-2.15v-.61h2.15Zm-1.57-.94h.76v3.72c0,.15,.02,.26,.07,.33,.04,.07,.1,.12,.17,.15,.07,.03,.15,.04,.23,.04,.06,0,.12,0,.16-.01,.05,0,.08-.02,.11-.02l.14,.63s-.11,.03-.19,.05c-.08,.02-.18,.03-.31,.03-.2,0-.39-.03-.56-.11s-.31-.19-.42-.35-.16-.35-.16-.59v-3.88Z"/>
      <path class="cls-5" d="M357.85,118.01c-.13,0-.25-.04-.34-.13s-.14-.2-.14-.32,.05-.23,.14-.32c.09-.09,.21-.13,.34-.13s.25,.04,.34,.13c.09,.09,.14,.2,.14,.32s-.05,.23-.14,.32-.21,.13-.34,.13Zm-.39,4.54v-3.93h.76v3.93h-.76Z"/>
      <path class="cls-5" d="M361.2,122.63c-.37,0-.69-.08-.96-.25-.27-.17-.49-.41-.64-.71-.15-.3-.23-.66-.23-1.06s.08-.76,.23-1.07c.15-.31,.37-.54,.64-.71,.28-.17,.6-.25,.96-.25s.69,.08,.96,.25c.28,.17,.49,.41,.64,.71,.15,.31,.23,.66,.23,1.07s-.08,.76-.23,1.06c-.15,.3-.37,.54-.64,.71-.27,.17-.6,.25-.96,.25Zm0-.64c.24,0,.44-.06,.59-.19,.16-.13,.27-.29,.35-.5,.08-.21,.11-.44,.11-.69s-.04-.48-.11-.69c-.08-.21-.19-.38-.35-.51s-.35-.19-.59-.19-.44,.06-.6,.19-.27,.3-.35,.51-.11,.44-.11,.69,.04,.48,.11,.69,.19,.38,.35,.5c.16,.13,.36,.19,.6,.19Z"/>
      <path class="cls-5" d="M364.94,120.21v2.33h-.76v-3.93h.73v.64h.05c.09-.21,.23-.38,.43-.5s.44-.19,.73-.19c.27,0,.5,.06,.7,.17,.2,.11,.36,.28,.47,.5,.11,.22,.17,.49,.17,.82v2.5h-.76v-2.41c0-.29-.07-.51-.22-.67s-.35-.24-.61-.24c-.18,0-.33,.04-.47,.12s-.25,.19-.33,.34c-.08,.15-.12,.33-.12,.53Z"/>
      <path class="cls-5" d="M371.71,119.58l-.69,.12c-.03-.09-.07-.17-.14-.25s-.15-.15-.25-.2c-.11-.05-.24-.08-.4-.08-.22,0-.4,.05-.54,.14-.15,.1-.22,.22-.22,.37,0,.13,.05,.24,.15,.32,.1,.08,.25,.15,.47,.2l.62,.14c.36,.08,.63,.21,.81,.39,.18,.17,.27,.4,.27,.68,0,.24-.07,.45-.2,.63-.13,.18-.32,.33-.57,.43-.24,.1-.52,.16-.84,.16-.44,0-.8-.09-1.08-.28-.28-.19-.45-.46-.51-.81l.74-.11c.05,.19,.14,.34,.28,.44s.33,.15,.56,.15c.25,0,.45-.05,.6-.16,.15-.1,.22-.23,.22-.38,0-.12-.05-.23-.14-.31s-.23-.15-.42-.19l-.67-.15c-.37-.08-.64-.22-.81-.4s-.26-.41-.26-.69c0-.23,.07-.44,.2-.61,.13-.17,.31-.31,.54-.41,.23-.1,.49-.15,.79-.15,.42,0,.76,.09,1,.28s.41,.43,.48,.74Z"/>
      <rect class="cls-3" x="259.25" y="20.69" width="121.27" height="61.38" rx="1.8" ry="1.8"/>
      <rect class="cls-6" x="325.57" y="31.93" width="41.73" height="3.93" rx="1.49" ry="1.49"/>
      <rect class="cls-6" x="289.18" y="31.93" width="30.55" height="3.93" rx="1.49" ry="1.49"/>
      <rect class="cls-5" x="272.46" y="31.93" width="10.88" height="3.93" rx="1.49" ry="1.49"/>
      <rect class="cls-6" x="325.57" y="49.16" width="41.73" height="3.93" rx="1.49" ry="1.49"/>
      <rect class="cls-6" x="289.18" y="49.16" width="30.55" height="3.93" rx="1.49" ry="1.49"/>
      <rect class="cls-5" x="272.46" y="49.16" width="10.88" height="3.93" rx="1.49" ry="1.49"/>
      <rect class="cls-6" x="325.57" y="57.97" width="41.73" height="3.93" rx="1.49" ry="1.49"/>
      <rect class="cls-6" x="289.18" y="57.97" width="30.55" height="3.93" rx="1.49" ry="1.49"/>
      <rect class="cls-5" x="272.46" y="57.97" width="10.88" height="3.93" rx="1.49" ry="1.49"/>
      <rect class="cls-6" x="325.57" y="66.78" width="41.73" height="3.93" rx="1.49" ry="1.49"/>
      <rect class="cls-6" x="289.18" y="66.78" width="30.55" height="3.93" rx="1.49" ry="1.49"/>
      <rect class="cls-5" x="272.46" y="66.78" width="10.88" height="3.93" rx="1.49" ry="1.49"/>
      <rect class="cls-6" x="325.57" y="40.36" width="41.73" height="3.93" rx="1.49" ry="1.49"/>
      <rect class="cls-6" x="289.18" y="40.36" width="30.55" height="3.93" rx="1.49" ry="1.49"/>
      <rect class="cls-5" x="272.46" y="40.36" width="10.88" height="3.93" rx="1.49" ry="1.49"/>
      <rect class="cls-3" x="196.91" y="113.21" width="121.57" height="61.38" rx="1.8" ry="1.8"/>
      <rect class="cls-5" x="210.13" y="124.45" width="22.1" height="38.19" rx="1.8" ry="1.8"/>
      <rect class="cls-1" x="234.47" y="134.29" width="22.1" height="28.34" rx="1.8" ry="1.8"/>
      <rect class="cls-5" x="258.82" y="153.09" width="22.1" height="9.55" rx="1.8" ry="1.8"/>
      <rect class="cls-1" x="283.17" y="145.28" width="22.1" height="17.35" rx="1.8" ry="1.8"/>
      <rect class="cls-3" x="69.04" y="45.28" width="121.27" height="61.32" rx="1.8" ry="1.8"/>
      <rect class="cls-6" x="119.54" y="59.15" width="30.03" height="5.39" rx="1.8" ry="1.8"/>
      <rect class="cls-6" x="119.49" y="74.22" width="57.6" height="3.44" rx="1.3" ry="1.3"/>
      <rect class="cls-6" x="119.49" y="82.71" width="47.72" height="3.44" rx="1.3" ry="1.3"/>
      <rect class="cls-6" x="119.49" y="91.2" width="57.6" height="3.44" rx="1.3" ry="1.3"/>
      <path class="cls-1" d="M95.15,95.19c-2.49,0-4.82-.47-7-1.4-2.18-.93-4.1-2.23-5.76-3.89-1.66-1.66-2.96-3.58-3.9-5.75-.94-2.18-1.41-4.51-1.39-7.01,.01-2.5,.49-4.83,1.43-7.01,.94-2.18,2.24-4.1,3.89-5.75,1.65-1.66,3.57-2.96,5.75-3.89s4.51-1.4,6.99-1.4,4.84,.47,7.02,1.4c2.18,.93,4.1,2.23,5.75,3.89,1.65,1.66,2.94,3.58,3.87,5.75,.93,2.18,1.41,4.51,1.42,7.01s-.45,4.83-1.38,7.01c-.94,2.18-2.23,4.1-3.88,5.75-1.65,1.66-3.57,2.96-5.76,3.89-2.19,.94-4.53,1.4-7.03,1.4Zm0-3.01c2.09,0,4.04-.39,5.87-1.17,1.82-.78,3.42-1.86,4.8-3.23s2.45-2.97,3.23-4.8,1.17-3.77,1.15-5.83c-.01-2.09-.41-4.04-1.19-5.87-.78-1.82-1.86-3.42-3.23-4.8-1.37-1.37-2.97-2.45-4.78-3.23-1.81-.78-3.76-1.17-5.85-1.17s-4.02,.39-5.83,1.17-3.41,1.86-4.78,3.24c-1.37,1.38-2.45,2.98-3.24,4.8-.79,1.82-1.19,3.77-1.2,5.86-.01,2.06,.37,4,1.15,5.82,.78,1.82,1.86,3.41,3.24,4.79,1.38,1.37,2.98,2.45,4.8,3.24,1.82,.79,3.77,1.18,5.85,1.18Zm-9.88-15.05c0-1.87,.46-3.57,1.37-5.11,.91-1.54,2.14-2.76,3.68-3.68,1.54-.91,3.24-1.37,5.11-1.37,1.53,0,2.94,.31,4.22,.94s2.37,1.48,3.24,2.57c.87,1.09,1.46,2.33,1.75,3.72h-3.18c-.34-1.24-1.07-2.26-2.19-3.04s-2.4-1.18-3.85-1.18c-1.31,0-2.51,.32-3.59,.97s-1.95,1.5-2.59,2.58c-.64,1.08-.97,2.28-.97,3.6s.32,2.51,.97,3.59c.64,1.08,1.51,1.95,2.59,2.59,1.08,.64,2.28,.97,3.59,.97,1.45,0,2.69-.39,3.73-1.18,1.04-.79,1.73-1.8,2.09-3.04h3.16c-.29,1.39-.84,2.63-1.68,3.72s-1.88,1.95-3.13,2.57c-1.25,.63-2.65,.94-4.17,.94-1.87,0-3.57-.46-5.11-1.37s-2.76-2.14-3.68-3.68c-.91-1.54-1.37-3.24-1.37-5.11Z"/>
      <rect class="cls-4" x="155.18" y="61.92" width="137.14" height="26.35" rx="13.17" ry="13.17"/>
      <path class="cls-2" d="M175.53,80.13v-9.94h6.23v1.29h-4.73v3.03h4.41v1.29h-4.41v3.04h4.79v1.29h-6.29Z"/>
      <path class="cls-2" d="M184.8,72.68l1.64,2.9,1.66-2.9h1.59l-2.32,3.73,2.34,3.73h-1.59l-1.68-2.79-1.67,2.79h-1.59l2.32-3.73-2.29-3.73h1.59Z"/>
      <path class="cls-2" d="M194.66,72.68v1.16h-4.07v-1.16h4.07Zm-2.98-1.79h1.45v7.05c0,.28,.04,.49,.13,.63s.19,.24,.33,.29,.28,.08,.44,.08c.12,0,.22,0,.31-.02,.09-.02,.16-.03,.2-.04l.26,1.2c-.08,.03-.2,.07-.36,.1s-.35,.05-.58,.06c-.38,0-.74-.06-1.07-.2-.33-.14-.6-.36-.8-.66-.2-.3-.31-.67-.31-1.12v-7.35Z"/>
      <path class="cls-2" d="M196.26,80.13v-7.45h1.4v1.18h.08c.14-.4,.38-.72,.72-.95,.34-.23,.74-.35,1.17-.35,.09,0,.2,0,.32,0,.12,0,.22,.01,.29,.02v1.39c-.06-.02-.16-.03-.31-.06-.15-.02-.3-.03-.45-.03-.34,0-.65,.07-.91,.22-.27,.14-.48,.34-.63,.6s-.23,.54-.23,.87v4.55h-1.45Z"/>
      <path class="cls-2" d="M203.61,80.3c-.47,0-.9-.09-1.28-.26-.38-.18-.68-.43-.91-.77-.22-.34-.33-.75-.33-1.24,0-.42,.08-.77,.24-1.04,.16-.27,.38-.49,.66-.65,.27-.16,.58-.28,.92-.36,.34-.08,.69-.14,1.04-.18,.45-.05,.81-.09,1.09-.13,.28-.03,.48-.09,.61-.17,.13-.08,.19-.2,.19-.38v-.03c0-.42-.12-.75-.36-.98-.24-.23-.59-.35-1.06-.35s-.87,.11-1.15,.32c-.28,.22-.47,.45-.58,.72l-1.36-.31c.16-.45,.4-.82,.71-1.1s.67-.48,1.08-.61c.41-.13,.84-.19,1.29-.19,.3,0,.61,.04,.95,.1s.65,.2,.94,.38c.29,.18,.53,.45,.72,.79,.19,.34,.28,.78,.28,1.33v4.95h-1.42v-1.02h-.06c-.09,.19-.23,.37-.42,.55-.19,.18-.43,.33-.72,.45-.29,.12-.65,.18-1.06,.18Zm.32-1.16c.4,0,.75-.08,1.03-.24,.29-.16,.5-.37,.65-.62s.23-.53,.23-.83v-.96c-.05,.05-.15,.1-.3,.14-.15,.04-.31,.08-.5,.11-.19,.03-.37,.06-.55,.08-.18,.02-.33,.04-.45,.06-.28,.04-.54,.09-.77,.18-.23,.08-.42,.21-.55,.36-.14,.16-.21,.37-.21,.62,0,.36,.13,.63,.4,.81,.26,.18,.6,.27,1.01,.27Z"/>
      <path class="cls-2" d="M212.36,80.28c-.72,0-1.34-.16-1.86-.49-.52-.33-.92-.78-1.2-1.36-.28-.58-.42-1.24-.42-1.99s.14-1.43,.43-2.01c.28-.58,.69-1.03,1.2-1.36s1.13-.49,1.83-.49c.57,0,1.07,.1,1.51,.31,.44,.21,.8,.5,1.07,.88,.27,.38,.44,.81,.49,1.31h-1.41c-.08-.35-.25-.65-.53-.9s-.65-.38-1.11-.38c-.4,0-.76,.11-1.06,.32s-.54,.51-.71,.9c-.17,.39-.25,.85-.25,1.38s.08,1.01,.25,1.41c.17,.4,.4,.7,.7,.92,.3,.22,.66,.33,1.07,.33,.27,0,.52-.05,.75-.15,.22-.1,.41-.25,.57-.44,.15-.19,.26-.42,.32-.69h1.41c-.05,.48-.21,.91-.47,1.29-.26,.38-.61,.68-1.05,.89s-.95,.33-1.54,.33Z"/>
      <path class="cls-2" d="M220.46,72.68v1.16h-4.07v-1.16h4.07Zm-2.98-1.79h1.45v7.05c0,.28,.04,.49,.13,.63s.19,.24,.33,.29,.28,.08,.44,.08c.12,0,.22,0,.31-.02,.09-.02,.16-.03,.2-.04l.26,1.2c-.08,.03-.2,.07-.36,.1s-.35,.05-.58,.06c-.38,0-.74-.06-1.07-.2-.33-.14-.6-.36-.8-.66-.2-.3-.31-.67-.31-1.12v-7.35Z"/>
      <path class="cls-2" d="M229.01,80.13h-3.22v-9.94h3.32c.97,0,1.81,.2,2.51,.59,.7,.4,1.23,.96,1.61,1.7,.37,.74,.56,1.62,.56,2.66s-.19,1.92-.57,2.67c-.38,.74-.92,1.32-1.63,1.71-.71,.4-1.57,.6-2.58,.6Zm-1.72-1.31h1.63c.76,0,1.39-.14,1.89-.43,.5-.29,.88-.7,1.13-1.25s.37-1.21,.37-2-.12-1.44-.37-1.98c-.25-.54-.62-.96-1.1-1.24s-1.09-.42-1.82-.42h-1.73v7.32Z"/>
      <path class="cls-2" d="M237.7,80.3c-.47,0-.9-.09-1.28-.26-.38-.18-.68-.43-.91-.77-.22-.34-.33-.75-.33-1.24,0-.42,.08-.77,.24-1.04,.16-.27,.38-.49,.66-.65,.27-.16,.58-.28,.92-.36,.34-.08,.69-.14,1.04-.18,.45-.05,.81-.09,1.09-.13,.28-.03,.48-.09,.61-.17,.13-.08,.19-.2,.19-.38v-.03c0-.42-.12-.75-.36-.98-.24-.23-.59-.35-1.06-.35s-.87,.11-1.15,.32c-.28,.22-.47,.45-.58,.72l-1.36-.31c.16-.45,.4-.82,.71-1.1s.67-.48,1.08-.61c.41-.13,.84-.19,1.29-.19,.3,0,.61,.04,.95,.1s.65,.2,.94,.38c.29,.18,.53,.45,.72,.79,.19,.34,.28,.78,.28,1.33v4.95h-1.42v-1.02h-.06c-.09,.19-.23,.37-.42,.55-.19,.18-.43,.33-.72,.45-.29,.12-.65,.18-1.06,.18Zm.32-1.16c.4,0,.75-.08,1.03-.24,.29-.16,.5-.37,.65-.62s.23-.53,.23-.83v-.96c-.05,.05-.15,.1-.3,.14-.15,.04-.31,.08-.5,.11-.19,.03-.37,.06-.55,.08-.18,.02-.33,.04-.45,.06-.28,.04-.54,.09-.77,.18-.23,.08-.42,.21-.55,.36-.14,.16-.21,.37-.21,.62,0,.36,.13,.63,.4,.81,.26,.18,.6,.27,1.01,.27Z"/>
      <path class="cls-2" d="M246.79,72.68v1.16h-4.07v-1.16h4.07Zm-2.98-1.79h1.45v7.05c0,.28,.04,.49,.13,.63s.19,.24,.33,.29,.28,.08,.44,.08c.12,0,.22,0,.31-.02,.09-.02,.16-.03,.2-.04l.26,1.2c-.08,.03-.2,.07-.36,.1s-.35,.05-.58,.06c-.38,0-.74-.06-1.07-.2-.33-.14-.6-.36-.8-.66-.2-.3-.31-.67-.31-1.12v-7.35Z"/>
      <path class="cls-2" d="M250.56,80.3c-.47,0-.9-.09-1.28-.26-.38-.18-.68-.43-.91-.77-.22-.34-.33-.75-.33-1.24,0-.42,.08-.77,.24-1.04,.16-.27,.38-.49,.66-.65,.27-.16,.58-.28,.92-.36,.34-.08,.69-.14,1.04-.18,.45-.05,.81-.09,1.09-.13,.28-.03,.48-.09,.61-.17,.13-.08,.19-.2,.19-.38v-.03c0-.42-.12-.75-.36-.98-.24-.23-.59-.35-1.06-.35s-.87,.11-1.15,.32c-.28,.22-.47,.45-.58,.72l-1.36-.31c.16-.45,.4-.82,.71-1.1s.67-.48,1.08-.61c.41-.13,.84-.19,1.29-.19,.3,0,.61,.04,.95,.1s.65,.2,.94,.38c.29,.18,.53,.45,.72,.79,.19,.34,.28,.78,.28,1.33v4.95h-1.42v-1.02h-.06c-.09,.19-.23,.37-.42,.55-.19,.18-.43,.33-.72,.45-.29,.12-.65,.18-1.06,.18Zm.32-1.16c.4,0,.75-.08,1.03-.24,.29-.16,.5-.37,.65-.62s.23-.53,.23-.83v-.96c-.05,.05-.15,.1-.3,.14-.15,.04-.31,.08-.5,.11-.19,.03-.37,.06-.55,.08-.18,.02-.33,.04-.45,.06-.28,.04-.54,.09-.77,.18-.23,.08-.42,.21-.55,.36-.14,.16-.21,.37-.21,.62,0,.36,.13,.63,.4,.81,.26,.18,.6,.27,1.01,.27Z"/>
      <path class="cls-2" d="M276.57,67.3l-7.92,4.57c-.46,.26-.61,.84-.35,1.3,.26,.46,.84,.61,1.3,.35l7.92-4.57c.46-.26,.61-.84,.35-1.3-.26-.46-.84-.61-1.3-.35Z"/>
      <path class="cls-2" d="M279.59,69.37l-7.92,4.57c-.46,.26-.61,.84-.35,1.3,.26,.46,.84,.61,1.3,.35l7.92-4.57c.46-.26,.61-.84,.35-1.3-.26-.46-.84-.61-1.3-.35Z"/>
      <path class="cls-2" d="M277.92,74.15l-7.92,4.57c-.46,.26-.61,.84-.35,1.3,.26,.46,.84,.61,1.3,.35l7.92-4.57c.46-.26,.61-.84,.35-1.3-.26-.46-.84-.61-1.3-.35Z"/>
      <path class="cls-2" d="M280.84,76.28l-7.92,4.57c-.46,.26-.61,.84-.35,1.3,.26,.46,.84,.61,1.3,.35l7.92-4.57c.46-.26,.61-.84,.35-1.3-.26-.46-.84-.61-1.3-.35Z"/>
    </g>
  </g>
</svg>